<svg xmlns="http://www.w3.org/2000/svg" width="26.48" height="23.394" viewBox="0 0 26.48 23.394">
  <path id="Heart" d="M24.548,32.134A6.67,6.67,0,0,0,13.9,32.9a10.153,10.153,0,0,0-.659,1.069,10.145,10.145,0,0,0-.659-1.069,6.67,6.67,0,0,0-10.649-.766A8.027,8.027,0,0,0,0,37.465a9.829,9.829,0,0,0,2.707,6.449,60.271,60.271,0,0,0,6.775,6.33c1.025.873,2.084,1.776,3.213,2.763l.034.03a.776.776,0,0,0,1.022,0l.034-.03c1.128-.987,2.188-1.89,3.213-2.763a60.262,60.262,0,0,0,6.775-6.33,9.829,9.829,0,0,0,2.707-6.449A8.027,8.027,0,0,0,24.548,32.134Zm-8.557,16.93c-.883.753-1.792,1.527-2.751,2.361-.959-.833-1.868-1.608-2.751-2.361-5.382-4.586-8.937-7.616-8.937-11.6A6.478,6.478,0,0,1,3.1,33.16a5.179,5.179,0,0,1,3.938-1.772,5.23,5.23,0,0,1,4.281,2.41A9.2,9.2,0,0,1,12.5,36.159a.776.776,0,0,0,1.475,0A9.2,9.2,0,0,1,15.165,33.8a5.12,5.12,0,0,1,8.219-.637,6.478,6.478,0,0,1,1.544,4.305C24.929,41.448,21.373,44.478,15.991,49.064Z" transform="translate(0 -29.836)" fill="#b7b7b7"/>
</svg>
