<svg xmlns="http://www.w3.org/2000/svg" xmlns:xlink="http://www.w3.org/1999/xlink" viewBox="0 0 626 187.01"><defs><style>.cls-1{fill:url(#linear-gradient);}.cls-2{fill:url(#linear-gradient-2);}.cls-3{fill:#4b615e;}.cls-4{fill:#fff;}.cls-5,.cls-8{fill:#2c2c2c;}.cls-6{fill:#eed9a2;}.cls-7{font-size:105.02px;fill:#fa6400;font-family:MeriendaOne-Regular, Merienda One;letter-spacing:-0.03em;}.cls-8{font-size:33.34px;font-family:OpenSans-Regular, Open Sans;}</style><linearGradient id="linear-gradient" x1="118.45" y1="130.22" x2="118.45" y2="130.24" gradientUnits="userSpaceOnUse"><stop offset="0" stop-color="#e86f27"/><stop offset="0.24" stop-color="#eb8327"/><stop offset="0.4" stop-color="#eb8627"/><stop offset="0.73" stop-color="#f2b425"/><stop offset="0.95" stop-color="#f4c325"/></linearGradient><linearGradient id="linear-gradient-2" x1="75.8" y1="19.95" x2="75.8" y2="89.1" xlink:href="#linear-gradient"/></defs><title>Asset 13</title><g id="Layer_2" data-name="Layer 2"><g id="Layer_1-2" data-name="Layer 1"><path class="cls-1" d="M118.44,130.22h0v0Z"/><path class="cls-2" d="M140,75.35c0,.69,0,1.39,0,2.08a66.55,66.55,0,0,1-1.1,10q0,.21-.18,1l0,.08-.06,0c-.06.31-.15.69-.25,1.15a62.87,62.87,0,0,1-4.29,12.65c-.67,1.57-1.42,3.23-2.25,5s-1.91,3.83-3,5.87c-2,3.72-4.43,7.69-7.27,11.87l-.78,1.17c-.45.65-.92,1.3-1.38,2-.35.48-.69,1-1.05,1.44a2.73,2.73,0,0,1-.21.3l-.2.28c-.8,1.09-1.63,2.19-2.48,3.3a208.49,208.49,0,0,1-25.65,27.39c-1.41.19-2.84.35-4.29.45-.88.07-1.77.12-2.66.15s-1.79,0-2.69,0-1.66,0-2.49,0c-.68,0-1.36,0-2-.09a.68.68,0,0,1-.21,0c-.73,0-1.45-.1-2.18-.18l-1.49-.15-.94-.11c-1.22-.17-2.43-.36-3.63-.58l-1.8-.37a15.94,15.94,0,0,1-1.82-.4c-.55-.12-1.1-.25-1.64-.39-1-.28-2-.57-3-.89-1.72-1.59-3.37-3.18-5-4.76-17.06-16.82-27.23-32.25-33.3-44.34q-1.83-3.65-3.19-6.86c-.5-1.09-1-2.18-1.4-3.29a62.43,62.43,0,0,1-2.89-9.36c-.27-1.21-.4-1.92-.44-2.15a63.38,63.38,0,0,1-1.14-12.05c0-.58,0-1.15,0-1.73q.09-3.11.46-6.11A71.69,71.69,0,0,1,123.75,32.79,64.09,64.09,0,0,1,140,75.35Z"/><path class="cls-3" d="M132.46,74.68l7.5,2.75a66.55,66.55,0,0,1-1.1,10q0,.21-.18,1l0,.08-.06,0c-.06.31-.15.69-.25,1.15a62.87,62.87,0,0,1-4.29,12.65c-.67,1.57-1.42,3.23-2.25,5s-1.91,3.83-3,5.87H43.49a11.37,11.37,0,0,1-.43-1.07l2.68-2.6,13.32-13,1.26-1.23,4.14-.87,2.12-.45,1.66-.35,2.18-2.26h0l1-1,1-1.05.3-.3,8-8.31,6.67,1.24L102,72.58,115,59.67s.84-1.27,1.67,0c.66,1,10.29,9.9,14.21,13.5Z"/><path class="cls-4" d="M138.67,88.4h0l-8.14-6.92-.15-.12V85.1l-.54.84-4,6.25-2.5-3.75,2.09-2.51L120,87.18l-3.33-6.67L115,86.77l-7.51,5.42V85.93l-2.5-1.24,2.5-4.18,4.18.42-2.92-2.08h1.66l-.83-2.09,1.25-1.67,4.59-.42-2.09-2.5s3.75-5.83,4.17-9.59L128.71,73l2.15,3.31,7.82,12,0,.08Z"/><path class="cls-5" d="M71.24,46.25c.06-.15.46-1,.63-1s0-.05,0-.05h0s0,0,0,0c-.21.34-.5.63-.71,1s-.59,1-.87,1.47-.61.91-.91,1.37l-.17.14c-.23.19-.38.48-.62.67a6.51,6.51,0,0,0-1.17,1.76,8.27,8.27,0,0,0-.92,1.57c-.22.58-.4,1.2-.64,1.77a.71.71,0,0,0-.52.17,1.47,1.47,0,0,1-.17.16.35.35,0,0,0-.14.06,5.3,5.3,0,0,1-2.36-.87,4.79,4.79,0,0,0-2.73-.16,23.52,23.52,0,0,1-3.45.4,29.84,29.84,0,0,0-3.27-.1s0,0,0,0l3.21.53A17.17,17.17,0,0,0,59.87,55a6.62,6.62,0,0,1,2.36.26c.15.18.38.34.51.51l.29.44a7.26,7.26,0,0,1-1,.36,0,0,0,0,0,0,.06,1.69,1.69,0,0,0,.67,0,1.14,1.14,0,0,1-.51.2s-.05,0,0,0c.14.19.51.1.7.05l.18-.06c-.15.1-.3.21-.46.3a0,0,0,0,0,0,0,2.15,2.15,0,0,0,1.22-.32h0a.38.38,0,0,1,0,.1,2.1,2.1,0,0,0,0,.43.15.15,0,0,0,.15.06c.12,0,.22-.18.32-.25l.29-.22a1.51,1.51,0,0,0,1.16-.19A1.64,1.64,0,0,0,66,56.6a1,1,0,0,0,.94-.41.85.85,0,0,0,.32-.23v0h0a0,0,0,0,0,0-.05.61.61,0,0,0-.31-.12,1,1,0,0,0-.25-.38,1.57,1.57,0,0,0-.5-.34c.25-.49.53-1,.82-1.45s.65-.88.94-1.34a14.55,14.55,0,0,1,1.12-1.69A9,9,0,0,0,70.46,48C70.7,47.39,71,46.83,71.24,46.25Z"/><path class="cls-5" d="M82.4,47.73c0-.08.24-.5.33-.52s0,0,0,0h0c-.1.17-.25.31-.36.49l-.45.76c-.14.24-.31.46-.46.7l-.09.07c-.12.1-.19.25-.32.35a3.29,3.29,0,0,0-.6.9,4.54,4.54,0,0,0-.47.8c-.11.29-.2.61-.32.91a.34.34,0,0,0-.27.08l-.09.08-.07,0A2.73,2.73,0,0,1,78,51.92a2.38,2.38,0,0,0-1.4-.08,12.81,12.81,0,0,1-1.76.2,15.53,15.53,0,0,0-1.67,0h0c.55.08,1.1.18,1.65.27a8.91,8.91,0,0,0,1.79,0,3.31,3.31,0,0,1,1.21.13,3.19,3.19,0,0,1,.26.26,2.17,2.17,0,0,1,.15.22,2.31,2.31,0,0,1-.52.19s0,0,0,0A.78.78,0,0,0,78,53a.52.52,0,0,1-.26.11s0,0,0,0,.26.05.36,0l.09,0-.24.15s0,0,0,0a1.12,1.12,0,0,0,.63-.16h0v0a.83.83,0,0,0,0,.22.07.07,0,0,0,.07,0c.07,0,.12-.09.17-.13l.15-.11a.8.8,0,0,0,.59-.1.63.63,0,0,0,.12-.1.57.57,0,0,0,.49-.21.48.48,0,0,0,.16-.12v0h0a0,0,0,0,0,0,0,.38.38,0,0,0-.16-.06.52.52,0,0,0-.13-.2,1,1,0,0,0-.25-.17c.13-.25.27-.49.42-.74s.33-.45.48-.68a7.24,7.24,0,0,1,.57-.87A4.88,4.88,0,0,0,82,48.61C82.13,48.31,82.27,48,82.4,47.73Z"/><path class="cls-5" d="M40.85,73.92c-1-.35-5.55-3.16-4.57-2.9s4.25.7,3.44.26a27.51,27.51,0,0,1-4.39-4.4c-.08-.35,3.57,1.59,3.57,1.59s-5.11-5.9-4.06-5.11,3.33,1.32,2.52,1-3.46-4.58-3-4.32,2.83,1.36,2.48,1l-.65-.7L32.24,55s4.8,4,2.68,1.76-4.46-9-4.46-9-2.36,6.78-4.47,9S28.67,55,28.67,55l-3.9,5.28-.65.7c-.35.38,2.08-.71,2.48-1s-2.24,4-3.05,4.32,1.46-.17,2.52-1S22,68.47,22,68.47s3.65-1.94,3.57-1.59a27.83,27.83,0,0,1-4.38,4.4c-.82.44,2.46,0,3.44-.26s-3.55,2.55-4.58,2.9,2.87.44,4.49.18c0,0-1.62.71-1.32.7,2.3-.08,3.57-.26,3.57-.26s-1.87.79-1.38.79a27.4,27.4,0,0,0,5-.53,27.3,27.3,0,0,0,5,.53c.49,0-1.38-.79-1.38-.79s1.27.18,3.58.26c.29,0-1.33-.7-1.33-.7C38,74.36,41.88,74.28,40.85,73.92Z"/><path class="cls-5" d="M48,78.7c-.69-.24-3.71-2.12-3.06-1.94s2.84.47,2.3.18A19.25,19.25,0,0,1,44.28,74c-.06-.24,2.39,1.06,2.39,1.06S43.25,71.12,44,71.65s2.23.88,1.68.64a9.52,9.52,0,0,1-2-2.88c.27.18,1.89.9,1.66.65s-.44-.47-.44-.47l-2.6-3.52s3.2,2.64,1.79,1.17-3-6-3-6-1.57,4.52-3,6,1.79-1.17,1.79-1.17l-2.6,3.52-.44.47c-.23.25,1.39-.47,1.66-.65a9.41,9.41,0,0,1-2,2.88c-.54.24,1-.11,1.68-.64s-2.71,3.41-2.71,3.41,2.44-1.3,2.39-1.06a19.72,19.72,0,0,1-2.93,2.94c-.54.29,1.65,0,2.3-.18s-2.37,1.7-3.06,1.94,1.92.29,3,.12c0,0-1.08.47-.88.47,1.53-.06,2.38-.18,2.38-.18s-1.24.53-.92.53A18.49,18.49,0,0,0,41,79.29a18.59,18.59,0,0,0,3.37.35c.32,0-.93-.53-.93-.53s.85.12,2.39.18c.2,0-.88-.47-.88-.47C46.05,79,48.65,78.93,48,78.7Z"/><path class="cls-5" d="M27,70.16c-.68-.24-3.7-2.12-3.05-1.94s2.84.47,2.29.17a18.82,18.82,0,0,1-2.93-2.94c-.05-.23,2.39,1.06,2.39,1.06s-3.42-3.93-2.71-3.41,2.22.89,1.68.65a9.59,9.59,0,0,1-2-2.88c.28.17,1.9.9,1.66.65l-.43-.47L21.2,57.52S24.4,60.17,23,58.7s-3-6-3-6-1.57,4.53-3,6,1.79-1.18,1.79-1.18l-2.61,3.53-.43.47c-.23.25,1.39-.48,1.66-.65a9.59,9.59,0,0,1-2,2.88c-.54.24,1-.12,1.68-.65s-2.71,3.41-2.71,3.41,2.44-1.29,2.39-1.06a18.82,18.82,0,0,1-2.93,2.94c-.55.3,1.64,0,2.29-.17s-2.37,1.7-3.05,1.94,1.91.29,3,.11c0,0-1.08.48-.89.47,1.54-.06,2.39-.17,2.39-.17s-1.25.53-.92.53A17.83,17.83,0,0,0,20,70.74a17.83,17.83,0,0,0,3.36.36c.33,0-.92-.53-.92-.53s.85.11,2.39.17c.19,0-.89-.47-.89-.47C25,70.45,27.64,70.39,27,70.16Z"/><path class="cls-3" d="M72.7,88.83s0,0,0-.06a1.15,1.15,0,0,1-.23-.53c0-.22-.06-.45-.1-.67A6.72,6.72,0,0,0,72,86a7.5,7.5,0,0,1-.76-2.49,5.92,5.92,0,0,1,.06-.67c-.19-.17-.15.17-.28.19a1.11,1.11,0,0,1-.12-.15l.13-.45s0-.06,0-.08,0-.2-.16-.21c.06-.22-.11-.17-.24-.18a2.33,2.33,0,0,0-.28-1.27,2.09,2.09,0,0,1-.21-.54.43.43,0,0,1,0-.25.53.53,0,0,0-.54-.68c0,.08.06.14.09.21s.06.16,0,.2a.3.3,0,0,0,.09.46.16.16,0,0,1,.08.1c.16.4.31.8.45,1.21a2.59,2.59,0,0,1,.09.42,1.14,1.14,0,0,0-.25,0,.17.17,0,0,0-.06.08s0,.06.06.06a1,1,0,0,0,.2,0,4.53,4.53,0,0,1-.29.49s-.12,0-.18.06a1.64,1.64,0,0,0-.22,0c-.29.07-.58.17-.87.23s-.56.2-.87.05-.26-.16-.18-.37a1.35,1.35,0,0,0,.16-.45,1.13,1.13,0,0,1,.37-.79L67.88,81c0-.08,0-.15,0-.22h-.08l-.17,0,.12-.15c0-.07.13-.14.18-.22s.13-.17.25-.15l.36.08s.12,0,.14,0a3,3,0,0,0,.23-.27.42.42,0,0,0,0-.55s0-.1,0-.13a.35.35,0,0,0-.06-.41,1.15,1.15,0,0,1-.14-.27c0-.1,0-.19-.06-.29l.76-.14a.11.11,0,0,1,0-.05s-.1,0-.16,0l-.48,0a.43.43,0,0,1-.4-.12,1,1,0,0,0-.76-.33,1.4,1.4,0,0,0-.77.32,1.09,1.09,0,0,0-.5.8c0,.21.1.4,0,.61,0,0,0,0,0,0a.29.29,0,0,1,0,.08c-.12-.07-.21-.15-.31-.21l-1-.41a.39.39,0,0,0-.52.17q-.24.34-.48.72a.53.53,0,0,0,0,.53c0,.09.05.17.08.27a1.07,1.07,0,0,1-.18,0,.34.34,0,0,0-.42.2,1.88,1.88,0,0,0-.18.38,2.58,2.58,0,0,1-.55,1.11.88.88,0,0,0-.14.23.76.76,0,0,0-.09.53.29.29,0,0,1-.12.37.79.79,0,0,0-.33.5.55.55,0,0,1,0,.17v.27a1.1,1.1,0,0,0,.85.62,2,2,0,0,0,0,.25,2.26,2.26,0,0,1,0,.26c0,.14.08.19.2.21s.31,0,.33-.27a0,0,0,0,1,0,0,.29.29,0,0,0,0,.13,1.1,1.1,0,0,0,.09.14.26.26,0,0,0,.12-.11c.09-.17.18-.35.26-.53s.07-.07.09-.11l0,0c0,.16,0,.31,0,.47s0,.39,0,.58a1.63,1.63,0,0,1-.07.26.72.72,0,0,0,0,.19,2.93,2.93,0,0,0-.05.29,2.87,2.87,0,0,0,0,.31,3.58,3.58,0,0,0,.2,1.26,1.93,1.93,0,0,1,.17,1.11,3,3,0,0,0-.06.59c0,.2.08.26.27.28s.17.07.18.11a5.25,5.25,0,0,1,.06.79c0,.22,0,.49-.28.59a.16.16,0,0,0-.05.08c0,.13-.07.28-.09.42a.33.33,0,0,0,.24.41c0,.13-.1.25-.14.37a1.16,1.16,0,0,0,0,.18l0,.8a.41.41,0,0,0,0,.12.26.26,0,0,1,.1.11.86.86,0,0,1,.05.32.57.57,0,0,0,.12.33.46.46,0,0,0,.42.2l.29,0,.2,0a1.06,1.06,0,0,0,.19-.06,3.59,3.59,0,0,1,.35-.12c.08,0,.19,0,.25-.08A1.11,1.11,0,0,0,66.7,94a.24.24,0,0,0-.07-.13l0,0c-.21-.15-.39-.37-.72-.27,0,0,0,0,0,0a.9.9,0,0,1-.07-.54.83.83,0,0,0,0-.27l.06-1a5.73,5.73,0,0,1,.08-1c.11-.41.1-.82.18-1.23.11-.66.21-1.32.31-2h.13a1.25,1.25,0,0,0,.83,0,.36.36,0,0,1,.42.13.38.38,0,0,0,.29.13c.28,0,.57,0,.86,0s.26,0,.24-.28c0,0,0-.12,0-.13a1.41,1.41,0,0,1,.28-.07,1.07,1.07,0,0,0,.12.26c.09.11.09.17,0,.26a.69.69,0,0,0-.18.25c-.07.22-.13.46-.18.68a4.78,4.78,0,0,0-.18.9,2.63,2.63,0,0,1-.18,1.21c0,.09,0,.16.1.13,0,.19,0,.19.2.21a2.23,2.23,0,0,0,.23,0c.12,0,.26,0,.33-.05s.26-.14.39,0a.29.29,0,0,0,.18.07h.08a2.43,2.43,0,0,0,1.21-.46c.23-.14.2-.36,0-.46l-.23-.08a1,1,0,0,0-.53,0,.45.45,0,0,1-.44-.1l.15,0c-.16-.06,0-.14,0-.22l-.1,0c0-.29.1-.57.16-.85a9.36,9.36,0,0,1,.52-1.71,1.54,1.54,0,0,0,.13-.5,1,1,0,0,0-1-.9c-.2,0-.38,0-.58,0a.82.82,0,0,0,.06-.19c0-.24,0-.45-.25-.54a1,1,0,0,1-.38-.22c-.15-.16-.31-.31-.45-.47s-.22-.27-.33-.41a.35.35,0,0,0-.06-.09l.29-.13a2.85,2.85,0,0,1,.3-.16l1.19-.44a.17.17,0,0,0,.06-.11c0-.13.26-.35.37-.31s0,0,0,0,.17.28.25.43a5.42,5.42,0,0,1,.22.56c0,.1,0,.21,0,.31a8.77,8.77,0,0,0,.44,1.31,3.9,3.9,0,0,1,.2.47c.1.22.19.43.27.65s0,.18-.13.16l-.3,0c0,.12,0,.16.11.18l.28,0a.17.17,0,0,1,.1.1,3.11,3.11,0,0,1,0,.32c0,.35.06.69.08,1a1.52,1.52,0,0,0,.22.69l0,0,.07.05a.76.76,0,0,0,.25-.18A.22.22,0,0,0,72.7,88.83Zm-6.3-9c0-.15-.1-.3.09-.46l.11.41Z"/><path class="cls-5" d="M54,93.74s-.08.14-.23.36c-1.07,1.59-5.31,7.87-6.48,9-1.34,1.34-2.68,5.37-5.37,5.37-1.22,0-5.8.28-11,.46-3.35.11-7,.18-10.17.1q-1.83-3.65-3.19-6.86c-.5-1.09-1-2.18-1.4-3.29a62.43,62.43,0,0,1-2.89-9.36c-.27-1.21-.4-1.92-.44-2.15a63.38,63.38,0,0,1-1.14-12.05c0-.58,0-1.15,0-1.73h.75a5.85,5.85,0,0,1,4-1.35A2.63,2.63,0,0,1,19.06,75s.57.38,1.35.85l.25.15a11.15,11.15,0,0,0,3.77,1.68c1.34,0,3.88-1.59,3.88-1.59l1.48.53,1.35.48,3.63,1.3,1.48.53.25.1a.48.48,0,0,1,0,.08l.12.2c.38.68,1.46,2.4,2.53,2.4a9,9,0,0,1,1.34.16c.41.07.88.16,1.34.26,1.91.39,4,.92,4,.92l3.3,4.39Z"/><path class="cls-3" d="M118.44,130.22h0v0Z"/><path class="cls-3" d="M131.88,107.16q-1.35,2.81-3,5.87c-2,3.72-4.43,7.69-7.27,11.87l-.78,1.17c-.45.65-.92,1.3-1.38,2-.35.48-.69,1-1.05,1.44a2.73,2.73,0,0,1-.21.3l-.2.28c-.8,1.09-1.63,2.19-2.48,3.3a208.49,208.49,0,0,1-25.65,27.39c-1.41.19-2.84.35-4.29.45-.88.07-1.77.12-2.66.15s-1.79,0-2.69,0-1.66,0-2.49,0c-.68,0-1.36,0-2-.09a.68.68,0,0,1-.21,0c-.73,0-1.45-.1-2.18-.18l-1.49-.15-.94-.11c-1.22-.17-2.43-.36-3.63-.58l-1.8-.37a15.94,15.94,0,0,1-1.82-.4c-.55-.12-1.1-.25-1.64-.39-1-.28-2-.57-3-.89-1.72-1.59-3.37-3.18-5-4.76V121.92c0-1.41,3.74-5.4,7.3-8.89,1.77-1.73,3.5-3.33,4.7-4.43l1.12-1c.31-.26.48-.42.48-.42Z"/><path class="cls-5" d="M118,132.05c-.8,1.09-1.63,2.19-2.48,3.3a208.49,208.49,0,0,1-25.65,27.39c-1.41.19-2.84.35-4.29.45-.88.07-1.77.12-2.66.15s-1.79,0-2.69,0-1.66,0-2.49,0c-.68,0-1.36,0-2-.09a.68.68,0,0,1-.21,0c-.73,0-1.45-.1-2.18-.18l-1.49-.15-.94-.11c-1.22-.17-2.43-.36-3.63-.58l-1.8-.37a15.94,15.94,0,0,1-1.82-.4c-.55-.12-1.1-.25-1.64-.39-1-.28-2-.57-3-.89-1.72-1.59-3.37-3.18-5-4.76-17.06-16.82-27.23-32.25-33.3-44.34q-1.83-3.65-3.19-6.86c-.5-1.09-1-2.18-1.4-3.29l9.08-1.74L49.92,94.4c2,0,1.76.77,3.8,1.7a14.61,14.61,0,0,0,2.91,1,6.74,6.74,0,0,1,2.43,1.26,17.87,17.87,0,0,1,3.77,4.44v0A39.18,39.18,0,0,1,66,109.16l1,.42,5.66,2.26.14.5.78,2.69,1.24,4.36.06.2.47,1.65s.7.14,1.75.42l1.18.34c.67.21,1.4.46,2.14.75a1.45,1.45,0,0,1,.22.09l.14,0,.87.37.52.26.12.06a6.28,6.28,0,0,1,.57.31l.54.32h0l.19.12.1.08h0a8,8,0,0,1,1,.85l.12.12h0a8.67,8.67,0,0,0,1,.89.94.94,0,0,0,.12.09,20.87,20.87,0,0,0,12.15,4.27h.56c.27,0,.57,0,.87,0h3.23a0,0,0,0,0,0,0h4.87l1.85.08c.55,0,1.11.08,1.66.14s.84.07,1.25.12c1,.13,1.9.28,2.81.48l.49.11A18.08,18.08,0,0,1,118,132.05Z"/><path class="cls-5" d="M118.46,130.23v0l0,0Z"/><polygon class="cls-6" points="40.32 44.62 39.72 43.44 39.11 44.62 37.61 44.88 39.11 45.22 39.72 46.52 40.32 45.22 41.82 44.88 40.32 44.62"/><polygon class="cls-6" points="58.55 70.41 57.95 69.23 57.34 70.41 55.84 70.67 57.34 71 57.95 72.31 58.55 71 60.05 70.67 58.55 70.41"/><polygon class="cls-6" points="107.93 63.95 107.32 62.77 106.72 63.95 105.22 64.2 106.72 64.54 107.32 65.85 107.93 64.54 109.42 64.2 107.93 63.95"/><polygon class="cls-6" points="89.5 51.61 88.9 50.43 88.29 51.61 86.8 51.87 88.29 52.2 88.9 53.51 89.5 52.2 91 51.87 89.5 51.61"/><polygon class="cls-6" points="132.76 70.12 132.15 68.94 131.55 70.12 130.05 70.37 131.55 70.71 132.15 72.02 132.76 70.71 134.25 70.37 132.76 70.12"/><ellipse class="cls-6" cx="134.84" cy="61.24" rx="1.21" ry="0.77"/><ellipse class="cls-6" cx="82.11" cy="27.43" rx="1.21" ry="0.77"/><path class="cls-5" d="M72.17,123.55a2.54,2.54,0,0,0,.16.38s-.15-.11-.16-.14a1.68,1.68,0,0,1-.07-.24,2,2,0,0,1,0-.31l.08.09A1.06,1.06,0,0,0,72.17,123.55Z"/><path class="cls-5" d="M74.35,127.17h-.08a.37.37,0,0,1,0-.12.25.25,0,0,0,0-.17l.07,0a.37.37,0,0,1,0,.21A.43.43,0,0,0,74.35,127.17Z"/><path class="cls-5" d="M73.83,127.22h-.08A2.19,2.19,0,0,0,74,127a.73.73,0,0,1,.32-.2l0,.07a.73.73,0,0,0-.29.19A.75.75,0,0,1,73.83,127.22Z"/><path class="cls-5" d="M73.36,125.76h-.68l-.05,0c.16,0,.57-.07.72-.08a.61.61,0,0,1,.51.19l-.09.07A.46.46,0,0,0,73.36,125.76Z"/><path class="cls-5" d="M74,126.17a2.05,2.05,0,0,1-.38-1l0-.15,0-.09s.09.32.1.37a1.46,1.46,0,0,0,.35.78Z"/><path class="cls-5" d="M74.91,117.73a6.75,6.75,0,0,0,.26-1.09l.06.08a5.12,5.12,0,0,1-.29,1.1,2.21,2.21,0,0,1-.21.4,1.72,1.72,0,0,0-.33.79h0q.09.34.21.69a4.53,4.53,0,0,1,.12,1.89c0,.31,0,.63,0,1A8.32,8.32,0,0,1,75.75,125,3.22,3.22,0,0,1,77,123.24a1.64,1.64,0,0,1,1.3-.28l0,.05a1.61,1.61,0,0,0-1.22.32,3.14,3.14,0,0,0-1.3,1.91.2.2,0,0,1,0,.07,8.42,8.42,0,0,0,.24.86,6.39,6.39,0,0,1,.25.91c0,.22,0,.43.07.63s0,.29,0,.43a.15.15,0,0,1,0,.06,2.41,2.41,0,0,0,.1.43,14.37,14.37,0,0,0,1.73,3.61l-.09.06a14.43,14.43,0,0,1-1.74-3.64,2.36,2.36,0,0,1-.11-.44h0v0c-.17-.12-.34-.22-.51-.32a5,5,0,0,1-.69-.48,3.32,3.32,0,0,1-.38-.37,3.55,3.55,0,0,0-2-.08l0,0a4.1,4.1,0,0,1,1.91,0c-.11-.12-.2-.24-.3-.36l-.39-.47-.34-.36a12.51,12.51,0,0,1-.95-1.12l-.3-.43h0a1.39,1.39,0,0,0-.64-.32,3.58,3.58,0,0,1-.48,0v-.06a1.38,1.38,0,0,0,.42,0,1,1,0,0,1,.52.15,9.52,9.52,0,0,0-.65-.88c-.11-.12-.24-.25-.37-.37a.64.64,0,0,1-.59-.19l0,0a.55.55,0,0,0,.47.13l-.07-.06a5.66,5.66,0,0,1-.69-.79h0a6.05,6.05,0,0,0,.72.71,7,7,0,0,1,.55.54,9.19,9.19,0,0,1,.76,1l.37.54a10.73,10.73,0,0,0,.94,1.1c.11.13.23.25.34.37l.39.47c.14.17.28.35.43.51a.72.72,0,0,1,.33.25l0,0,.09.08a4.51,4.51,0,0,0,.68.46l.43.28c0-.11,0-.22,0-.33s0-.4-.07-.63a6.88,6.88,0,0,0-.24-.89,5.08,5.08,0,0,1-.24-.87,8.93,8.93,0,0,0-1.65-3.52,5,5,0,0,0-.4-.49,4,4,0,0,1-.66-.93c-.06-.15-.12-.29-.17-.44a3.4,3.4,0,0,0-.59-1.11l0,0a3.36,3.36,0,0,1,.66,1.1c.06.14.11.29.18.43a3.44,3.44,0,0,0,.63.91c.14.15.28.32.41.49s.29.42.42.63c0-.27,0-.54,0-.79a4.25,4.25,0,0,0-.12-1.84,10.42,10.42,0,0,1-.42-2.2l-.09-.65,0-.06c0,.21.08.5.1.71.05.41.12.82.21,1.22a2.77,2.77,0,0,1,.29-.6A3.87,3.87,0,0,0,74.91,117.73Z"/><path class="cls-5" d="M73.6,116.36a3.1,3.1,0,0,1,.13-.62,1,1,0,0,1,.17-.35,3,3,0,0,1,.13.47,5.44,5.44,0,0,0,.19.57.73.73,0,0,1-.19.77A1.14,1.14,0,0,1,73.6,116.36Z"/><path class="cls-5" d="M72.34,118.26c-.24-.28-.59-.33-.89-.51a1.07,1.07,0,0,1,.18.47,3.45,3.45,0,0,0,.12.46A.77.77,0,0,0,72,119a.52.52,0,0,0,.49.14h0l0,0a.79.79,0,0,0,0-.09A.85.85,0,0,0,72.34,118.26Z"/><path class="cls-5" d="M75.12,116.84a.87.87,0,0,1-.14-.37.76.76,0,0,1,.08-.36,1.34,1.34,0,0,1,.27-.4,1.3,1.3,0,0,1,.18-.15.7.7,0,0,0,.15-.23,2,2,0,0,1,.06.23,1,1,0,0,1,0,.24,1.28,1.28,0,0,1-.06.43,1,1,0,0,1-.21.42c-.07.07-.23.21-.33.19h0Z"/><path class="cls-5" d="M72.76,119.71l-.15.08a.94.94,0,0,1-.22.07.78.78,0,0,1-.4,0c-.25-.07-.62-.31-.81-.34a.43.43,0,0,0,.12-.05l.15,0,.32-.08a1.12,1.12,0,0,1,.63,0,.78.78,0,0,1,.18.11.23.23,0,0,1,.07.07l.15.15Z"/><polygon class="cls-5" points="72.84 119.72 72.83 119.71 72.83 119.71 72.84 119.72"/><path class="cls-5" d="M72.3,120.19c.49-.06.6.35.94.57,0,.18-.56.31-.9.2a2.53,2.53,0,0,1-.47-.28,5.26,5.26,0,0,1-.47-.27A2.29,2.29,0,0,1,72.3,120.19Z"/><path class="cls-5" d="M73.24,120.15a1.63,1.63,0,0,0,.24-.7.37.37,0,0,1,0-.11.74.74,0,0,1,.23.36,1.78,1.78,0,0,1,.11.65.79.79,0,0,1-.34.6A.73.73,0,0,1,73.24,120.15Z"/><path class="cls-5" d="M74.87,121.2a.21.21,0,0,0-.12,0,.47.47,0,0,0-.13.25.41.41,0,0,1,0,.08l-.14.22c-.06.12-.11.25,0,.29a.24.24,0,0,0,.12,0h0l.1-.06.16-.1a1.23,1.23,0,0,1,.46-.14c.06,0,.38,0,.41,0A1.39,1.39,0,0,0,74.87,121.2Zm-.35.54h0Z"/><path class="cls-5" d="M73.19,122.35a1.92,1.92,0,0,0,.23-.19,1.24,1.24,0,0,1,.26-.19.39.39,0,0,1,.55,0,.24.24,0,0,1,.06.08.31.31,0,0,1-.12.28.46.46,0,0,1-.35.05,2.88,2.88,0,0,0-.41,0l-.2,0-.13,0H73Z"/><path class="cls-5" d="M71.33,124.57a1.4,1.4,0,0,0,.29-.09c.13,0,.26-.11.39-.15a.53.53,0,0,1,.67.32c.07.13-.1.24-.24.31a.52.52,0,0,1-.42-.06c-.32-.14-.66-.18-1-.29Z"/><polygon class="cls-5" points="74.4 120.17 74.39 120.17 74.39 120.17 74.4 120.17"/><path class="cls-5" d="M74.21,121.91s-.12-.12-.13-.15-.1-.21-.15-.32a1.22,1.22,0,0,1-.15-.49.93.93,0,0,1,.61-.8l0,0h0a1.78,1.78,0,0,0-.17,1.34,1.34,1.34,0,0,1,0,.2S74.25,121.88,74.21,121.91Z"/><path class="cls-5" d="M74.64,118.3h0c.22-.29.27-.7,1.06-.33a.4.4,0,0,1,.21.07,3.6,3.6,0,0,0-.5.18c-.16.1-.3.21-.45.32s-.37.28-.45.18S74.57,118.38,74.64,118.3Z"/><path class="cls-5" d="M75.08,117.29a1.29,1.29,0,0,1,.27-.3,1.18,1.18,0,0,1,.31-.24,1,1,0,0,1,.37-.1h.19l.22,0h0v0a4,4,0,0,1-.39.43,1.16,1.16,0,0,1-.34.24.44.44,0,0,1-.28,0l-.18,0a.67.67,0,0,0-.19,0Z"/><path class="cls-5" d="M76.42,116.72Z"/><polygon class="cls-5" points="76.42 116.72 76.42 116.72 76.42 116.72 76.42 116.72"/><path class="cls-5" d="M73.22,117.59l0,0a2.69,2.69,0,0,1-.29-.16,2.61,2.61,0,0,1-.23-.24c.27.2.71,0,1,.15s.39.57.52.8h0c0,.07-.18.09-.25.08a.44.44,0,0,1-.26-.16,2.61,2.61,0,0,1-.23-.24A1.3,1.3,0,0,0,73.22,117.59Z"/><path class="cls-5" d="M72.67,119.13a1.56,1.56,0,0,0,.32-.62c0,.08.08.14.12.21a1.22,1.22,0,0,1,.15.65.39.39,0,0,1-.43.34h0A.43.43,0,0,1,72.67,119.13Z"/><path class="cls-5" d="M74.3,118.83h0c-.24,0-.5-.06-.65.18a.35.35,0,0,1,.2-.41.54.54,0,0,1,.46.23Z"/><path class="cls-5" d="M74.3,118.83Z"/><path class="cls-5" d="M75.19,119.59h0Z"/><path class="cls-5" d="M74.63,120a.34.34,0,0,1,.07-.45.51.51,0,0,1,.5.08h0C75,119.67,74.69,119.69,74.63,120Z"/><path class="cls-5" d="M75.93,124.7a.34.34,0,0,1,.39-.23.49.49,0,0,1,.25.44h0v0h0C76.37,124.78,76.18,124.57,75.93,124.7Z"/><path class="cls-5" d="M76.57,124.91h0Z"/><path class="cls-5" d="M74.43,116.43a2,2,0,0,1,0-.49,1.31,1.31,0,0,0-.12-.48,3.83,3.83,0,0,0,.36.44.88.88,0,0,1,.24.43,2.16,2.16,0,0,1,0,.44V117a.78.78,0,0,0,0,.22s0,0,0,0C74.65,117.09,74.47,116.67,74.43,116.43Z"/><path class="cls-5" d="M77.51,123c-.2-.2-.13-.65,0-.88a1.63,1.63,0,0,1,.24-.4,1.09,1.09,0,0,0,.19-.35c0,.3.16.63,0,.91a1.33,1.33,0,0,1-.21.39,1.57,1.57,0,0,0-.19.36S77.51,123,77.51,123Z"/><path class="cls-5" d="M74.69,120.89c0-.09.07-.22.11-.29a1,1,0,0,1,.33-.33,2.25,2.25,0,0,0,.3-.24,1.45,1.45,0,0,0,.19-.29h0a1.25,1.25,0,0,1-.2.82.75.75,0,0,1-.34.32c-.08,0-.25.14-.35.07A.09.09,0,0,1,74.69,120.89Z"/><path class="cls-5" d="M73.77,119.25c.22.06.64.11.71.38h0C74.14,119.93,73.91,119.55,73.77,119.25Z"/><path class="cls-5" d="M76.67,123.28l-.21-.08a.63.63,0,0,1-.32-.34,2.25,2.25,0,0,0-.08-.24c0,.1.28.11.38.13a1.82,1.82,0,0,1,.44.17c.08,0,.34.27.18.38a.22.22,0,0,1-.14,0Z"/><path class="cls-5" d="M73.09,124.79a1.22,1.22,0,0,1-.18-.81,1.33,1.33,0,0,1,.36-.68,3.82,3.82,0,0,0,.31-.47c.06-.1.1-.28.22-.32a2.53,2.53,0,0,1-.13,2.59c-.08.05-.25,0-.31,0A1,1,0,0,1,73.09,124.79Z"/><path class="cls-5" d="M69.26,121.28c-.1-.19-.13-.41-.24-.59s-.32-.34-.42-.53h0c.18-.05.47.2.64.25s.44.06.65.15c.55.22.45.7.48,1.17C69.91,121.72,69.47,121.7,69.26,121.28Z"/><path class="cls-5" d="M71.18,120.9a1,1,0,0,0-.07-.32c-.12.31-.43.54-.46.89a1.51,1.51,0,0,0,.19.74,0,0,0,0,1,0,0,.27.27,0,0,0,.07.08h0c.25,0,.37-.6.37-.78A1.83,1.83,0,0,0,71.18,120.9Z"/><path class="cls-5" d="M71.63,123.07a2,2,0,0,1,0-.55,1.77,1.77,0,0,1,.45-1.06.64.64,0,0,1,0-.07c0,.35.27.64.32,1a1.19,1.19,0,0,1-.18.9c0,.07-.14.12-.15.11S71.66,123.25,71.63,123.07Z"/><path class="cls-5" d="M78.21,123.12a.19.19,0,0,1,0-.15c0-.12.25-.3.41-.28a1.9,1.9,0,0,1,.46.15,1.55,1.55,0,0,1,.76.67l0,0c-.31-.06-.61,0-.92,0A1,1,0,0,1,78.21,123.12Z"/><path class="cls-5" d="M68.61,122.3c.22,0,.32-.16.49-.25a2,2,0,0,1,.6-.08,1.2,1.2,0,0,1,.57,0c.13.06.43.27.39.46,0,.39-.75.16-1,.16a1.44,1.44,0,0,1-.51,0,4.19,4.19,0,0,1-.49-.29Z"/><path class="cls-5" d="M68.82,123.45c.07-.15.5-.18.65-.23a3.43,3.43,0,0,1,.7-.18,1.1,1.1,0,0,1,.72.1c.17.1.43.35.36.57s-.39.35-.55.37a1.83,1.83,0,0,1-.7,0c-.24-.06-.39-.25-.61-.37S68.86,123.66,68.82,123.45Z"/><path class="cls-5" d="M70.75,125.93h0a.34.34,0,0,1,.17-.11,1.87,1.87,0,0,0,.45-.33,1.82,1.82,0,0,1,.55-.2c.41-.1,1-.09,1,.45,0,.1-.25.09-.41.16a3.69,3.69,0,0,1-.58.23.86.86,0,0,1-.61,0c-.11,0-.2-.11-.31-.14a1,1,0,0,1-.3-.1Z"/><path class="cls-5" d="M71,127.51a1.71,1.71,0,0,0,.43-.29,4.42,4.42,0,0,1,.57-.39,1.32,1.32,0,0,1,.56-.21c.17,0,.4.11.42.29a.43.43,0,0,1-.27.45,1.49,1.49,0,0,1-.58.28c-.21,0-.4-.09-.61-.09a2.83,2.83,0,0,1-.65,0Z"/><path class="cls-5" d="M71.58,128.39h0a3.23,3.23,0,0,0,.56-.55,1.12,1.12,0,0,1,.58-.38c.23-.1.43-.26.66-.35a1.09,1.09,0,0,1,.62,0c.24-.11.64,0,.31.39a2.15,2.15,0,0,1-.6.48,3.67,3.67,0,0,1-1.72.4c-.15,0-.3.07-.45.07A.1.1,0,0,1,71.58,128.39Z"/><path class="cls-5" d="M74.65,124.64c.08-.11.08-.11.09,0s0,.26,0,.41a2,2,0,0,1,0,.73.76.76,0,0,1-.13.23.64.64,0,0,1-.19.21c-.3.21-.39-.33-.37-.52A2.43,2.43,0,0,1,74.65,124.64Z"/><path class="cls-5" d="M74.16,126.47a.58.58,0,0,1,.13-.15h0c-.12-.34.37-.59.6-.68s.7.06,1-.12a.21.21,0,0,1-.08.12,2.67,2.67,0,0,1-.61.68C74.89,126.56,74,126.76,74.16,126.47Z"/><path class="cls-5" d="M75.38,127.37c-.19,0-.71-.17-.57-.41.27-.64,1-.22,1.3.24C75.84,127.17,75.64,127.33,75.38,127.37Z"/><path class="cls-5" d="M75.33,124s0,0,0,0,.11-.41.19-.53.46-.47.42-.55a1.21,1.21,0,0,1-.24,1.06C75.61,124,75.4,124.09,75.33,124Z"/><path class="cls-5" d="M74.13,129c-.12-.36-.47-.84-.38-1.26a.86.86,0,0,1,.85-.72c.27.11-.43,1.61-.45,1.89Z"/><path class="cls-5" d="M75.74,127l0,0Z"/><path class="cls-5" d="M75,129c.11-.51-.18-1.32.55-1.4h0c0-.09.24-.27.28-.1a1,1,0,0,1-.06.23,1.42,1.42,0,0,1,0,.22,1.3,1.3,0,0,1-.11.48.9.9,0,0,1-.28.36A.85.85,0,0,1,75,129h0Z"/><path class="cls-5" d="M78.43,123.82h0a0,0,0,0,0,0,0h0a.19.19,0,0,1,0-.08l0,0a2.21,2.21,0,0,0-.12-.27h0v0h0l0,0h0a.54.54,0,0,0-.22-.25c-.28-.15-.23.14-.61.33l-.09,0h0l-.06,0s0,.1,0,.14.21,0,.33,0h.11a1,1,0,0,1,.3,0h0l0,0,.13,0h0l0,0,.07,0,.07,0,0,0,.08.05Z"/><path class="cls-5" d="M76.06,124.31c0-.18.17-.27.26-.33h0c.31-.19.51-.55,1.11.08a.36.36,0,0,1,.17.15,2,2,0,0,0-.53,0c-.19,0-.36.09-.53.13S76.11,124.43,76.06,124.31Z"/><path class="cls-5" d="M78.12,123c0,.07.08.35.1.42s.07-.19.06-.21a1.3,1.3,0,0,0-.1-.25,2.06,2.06,0,0,0-.17-.3v.13A1.2,1.2,0,0,1,78.12,123Z"/><path class="cls-5" d="M78.47,127.39l.07,0-.1-.09a.21.21,0,0,1-.11-.14h-.09a.3.3,0,0,0,.14.19Z"/><path class="cls-5" d="M79,127.14l.08,0a2.39,2.39,0,0,1-.36,0,.94.94,0,0,0-.44,0l0,.07a.9.9,0,0,1,.4,0A.93.93,0,0,0,79,127.14Z"/><path class="cls-5" d="M78.47,125.59c.15-.08.48-.28.63-.38l0-.06c-.15.09-.58.26-.73.35a.59.59,0,0,0-.35.45h.12A.5.5,0,0,1,78.47,125.59Z"/><path class="cls-5" d="M78.11,126.33a1.94,1.94,0,0,0-.3-1.08l-.07-.15-.09,0,.15.38a1.43,1.43,0,0,1,.19.88Z"/><path class="cls-5" d="M78.23,123.45c0,.22,0,.44,0,.67a10.89,10.89,0,0,1-.15,1.5c0,.18,0,.35-.08.52l-.06.64q0,.34-.06.69a.59.59,0,0,0-.14.4h.06l0,.12a4.55,4.55,0,0,1-.33.79c-.1.22-.24.41-.33.64a.09.09,0,0,0,0,.07.07.07,0,0,0,.09,0s0,0,.07-.06.09-.19.14-.28.1-.23.16-.34a4.9,4.9,0,0,0,.33-.81,3.45,3.45,0,0,0,.11-.54,3.83,3.83,0,0,1,1.81-1.21l0-.08a4.48,4.48,0,0,0-1.8,1.08c0-.16,0-.32,0-.48s0-.43.06-.63,0-.34.07-.52a9.78,9.78,0,0,0,.15-1.52c0-.18,0-.36,0-.54a1.33,1.33,0,0,1,.39-.65,5.1,5.1,0,0,0,.42-.31l0-.05c-.07.1-.2.14-.38.26a1,1,0,0,0-.39.42,8.46,8.46,0,0,1,0-1.13c0-.17.06-.35.1-.53.22-.09.32-.19.43-.52h0a.6.6,0,0,1-.35.39l0-.1a4.55,4.55,0,0,0,.13-1.08h0a5,5,0,0,1-.2,1,5.69,5.69,0,0,0-.16.78A8.71,8.71,0,0,0,78.23,123.45Z"/><path class="cls-5" d="M79.58,123.39a1.78,1.78,0,0,1-.33.09,3.94,3.94,0,0,0-.47.1.52.52,0,0,0-.41.66c0,.16.25.15.43.13s.27-.17.35-.29c.21-.31.51-.54.74-.82Z"/><path class="cls-5" d="M78.08,124.6a1.38,1.38,0,0,0-.37-.81,1.63,1.63,0,0,0-.79-.39,5,5,0,0,1-.61-.22c-.12-.06-.27-.19-.42-.15a2.86,2.86,0,0,0,1.84,2.17c.12,0,.24-.16.27-.22A1,1,0,0,0,78.08,124.6Z"/><path class="cls-5" d="M79.35,119.34c0-.23-.16-.44-.18-.66s.09-.47.06-.7v0c-.21.06-.31.45-.44.59s-.38.31-.52.5c-.36.51,0,.87.33,1.3C79,120.09,79.42,119.83,79.35,119.34Z"/><path class="cls-5" d="M78.17,120.31c-.26-.3-.71-.32-1-.51a.94.94,0,0,0,.15.3,2,2,0,0,0,.25.65c.13.15.67.64.88.46h0s0,0,0,0a.22.22,0,0,0,0-.08v0A1.42,1.42,0,0,0,78.17,120.31Z"/><path class="cls-5" d="M78.31,122.26a2.43,2.43,0,0,0-.35-.49,2.17,2.17,0,0,0-1.13-.67l-.07,0c.2.34.17.72.37,1.06a1.38,1.38,0,0,0,.77.68.3.3,0,0,0,.21,0C78.26,122.79,78.39,122.43,78.31,122.26Z"/><path class="cls-5" d="M80.63,119.85c-.2.13-.41,0-.63.07a1.87,1.87,0,0,0-.61.28,1,1,0,0,0-.5.36c-.08.13-.23.49-.07.63.31.3.81-.29,1-.42a1.72,1.72,0,0,0,.46-.32,3.36,3.36,0,0,0,.26-.54Z"/><path class="cls-5" d="M81.19,121c-.16-.09-.58.14-.76.18a4.15,4.15,0,0,0-.78.24,1.38,1.38,0,0,0-.61.5c-.09.19-.16.56,0,.7s.59.09.76,0a2,2,0,0,0,.64-.42c.19-.19.21-.44.34-.67S81.3,121.18,81.19,121Z"/><path class="cls-5" d="M81,124.24h0a.41.41,0,0,0-.22,0,2.35,2.35,0,0,1-.65,0,2.37,2.37,0,0,0-.65.15c-.45.14-1,.5-.69,1,.11.06.3-.08.49-.1s.48-.08.71-.13a1,1,0,0,0,.59-.32c.07-.1.12-.21.2-.31a1.27,1.27,0,0,0,.22-.25Z"/><path class="cls-5" d="M81.84,125.76a2,2,0,0,1-.59,0c-.27,0-.54,0-.81,0a1.49,1.49,0,0,0-.66.15c-.15.09-.3.31-.2.49a.55.55,0,0,0,.56.23,1.93,1.93,0,0,0,.72-.08c.22-.11.32-.32.52-.44a3.42,3.42,0,0,0,.61-.37Z"/><path class="cls-5" d="M81.88,126.85h0a4.13,4.13,0,0,1-.9-.15,1.41,1.41,0,0,0-.79,0c-.28,0-.57,0-.85.07a1.24,1.24,0,0,0-.6.35c-.3,0-.57.4,0,.52a3,3,0,0,0,.89.07,4.41,4.41,0,0,0,1.87-.65c.15-.08.33-.11.47-.2Z"/><path class="cls-5" d="M76.5,125.36c-.14,0-.14,0-.06.08s.23.2.3.35a1.87,1.87,0,0,0,.45.64.87.87,0,0,0,.27.14,1,1,0,0,0,.33.07c.41,0,.14-.52,0-.67A3,3,0,0,0,76.5,125.36Z"/><path class="cls-5" d="M78.18,126.67a.9.9,0,0,0-.22,0v0c-.1-.36-.74-.3-1-.25s-.62.45-1,.46a.3.3,0,0,0,.15.06,3.57,3.57,0,0,0,1,.24C77.55,127.17,78.53,126.83,78.18,126.67Z"/><path class="cls-5" d="M77.63,128.16c.2-.08.55-.56.27-.69-.68-.4-1.1.4-1.07,1C77.07,128.24,77.36,128.27,77.63,128.16Z"/><path class="cls-5" d="M79.89,128.86c-.13-.39-.12-1-.48-1.32a1.09,1.09,0,0,0-1.28-.13c-.18.25,1.47,1.15,1.68,1.38Z"/><path class="cls-5" d="M77.08,128.08l0,0Z"/><path class="cls-5" d="M79.14,129.36c-.44-.38-.71-1.25-1.45-.91h0c-.11,0-.41-.09-.33.07s.16.13.21.18l.2.16a1.43,1.43,0,0,0,.42.35,1.21,1.21,0,0,0,.5.15,1,1,0,0,0,.43,0h0Z"/><path class="cls-5" d="M85.18,124.53a4.58,4.58,0,0,1-.2.46,1.2,1.2,0,0,0,.2-.17c0-.08,0-.19.08-.29a2.56,2.56,0,0,0,0-.37l-.09.11A1.43,1.43,0,0,1,85.18,124.53Z"/><path class="cls-5" d="M82.5,128.82h.1a.77.77,0,0,0,0-.15.25.25,0,0,1,0-.19l-.08-.05a.34.34,0,0,0,0,.26A.19.19,0,0,1,82.5,128.82Z"/><path class="cls-5" d="M83.12,128.89h.11a1.69,1.69,0,0,1-.28-.26,1,1,0,0,0-.38-.25l0,.09a.85.85,0,0,1,.34.23A1,1,0,0,0,83.12,128.89Z"/><path class="cls-5" d="M83.72,127.16l.8,0,.06-.05c-.18,0-.67-.09-.85-.1a.74.74,0,0,0-.62.21l.11.09A.54.54,0,0,1,83.72,127.16Z"/><path class="cls-5" d="M82.92,127.63a2.52,2.52,0,0,0,.47-1.18l0-.17,0-.11c0,.06-.11.38-.13.45a1.67,1.67,0,0,1-.43.92Z"/><path class="cls-5" d="M82,117.51a7.78,7.78,0,0,1-.3-1.31l-.07.1a6.9,6.9,0,0,0,.32,1.32,3.25,3.25,0,0,0,.25.49,2.13,2.13,0,0,1,.38.94h0a8,8,0,0,1-.26.83,5.27,5.27,0,0,0-.18,2.25,11,11,0,0,1,0,1.15,9.68,9.68,0,0,0-1.32,2.92,3.91,3.91,0,0,0-1.52-2.12,2,2,0,0,0-1.55-.36l0,.06a1.88,1.88,0,0,1,1.45.41,3.71,3.71,0,0,1,1.53,2.31s0,0,0,.08a7,7,0,0,1-.3,1,9.58,9.58,0,0,0-.31,1.08,7.43,7.43,0,0,0-.09.76c0,.17,0,.35-.06.52s0,0,0,.06a2.69,2.69,0,0,1-.14.52,17.12,17.12,0,0,1-2.12,4.29l.1.08A17.31,17.31,0,0,0,80,130.58a3.67,3.67,0,0,0,.14-.52h0v0c.21-.14.42-.27.62-.38a7.11,7.11,0,0,0,.83-.56,3.19,3.19,0,0,0,.46-.44,4.29,4.29,0,0,1,2.38-.06l.07-.06a4.77,4.77,0,0,0-2.29-.05c.13-.14.25-.29.37-.43s.31-.38.47-.55l.42-.44a13.1,13.1,0,0,0,1.15-1.32q.19-.26.36-.51h0a1.66,1.66,0,0,1,.78-.37,4.78,4.78,0,0,0,.57,0v-.07a2.55,2.55,0,0,1-.5,0,1.19,1.19,0,0,0-.62.16,10.15,10.15,0,0,1,.79-1c.13-.14.29-.29.44-.43a.8.8,0,0,0,.72-.22l0,0a.65.65,0,0,1-.56.15l.08-.08a5.24,5.24,0,0,0,.84-.93h0a7.86,7.86,0,0,1-.88.84c-.23.21-.47.42-.67.63A12.15,12.15,0,0,0,85,125l-.44.63A14.18,14.18,0,0,1,83.37,127c-.14.15-.28.29-.41.44s-.33.37-.49.56-.34.4-.52.6a.85.85,0,0,0-.39.29l.06,0-.11.09a5.53,5.53,0,0,1-.82.54l-.52.32c0-.13,0-.26,0-.39a6.77,6.77,0,0,1,.09-.74,7.73,7.73,0,0,1,.31-1.07,8.36,8.36,0,0,0,.3-1,10.7,10.7,0,0,1,2-4.19c.16-.2.33-.39.49-.58a4.33,4.33,0,0,0,.8-1.1c.08-.17.15-.35.22-.52a3.86,3.86,0,0,1,.72-1.32l0,0a4,4,0,0,0-.81,1.31c-.07.17-.14.35-.22.51a4.45,4.45,0,0,1-.78,1.08,5.55,5.55,0,0,0-.49.58c-.19.25-.36.5-.52.74a7.24,7.24,0,0,0,0-.94,5.2,5.2,0,0,1,.18-2.21A12.47,12.47,0,0,0,83,117.3c0-.26.07-.52.11-.77l-.05-.08c0,.25-.11.6-.14.85a14.42,14.42,0,0,1-.27,1.46,3,3,0,0,0-.34-.72A4.67,4.67,0,0,1,82,117.51Z"/><path class="cls-5" d="M83.58,115.9a3,3,0,0,0-.14-.75,1.17,1.17,0,0,0-.2-.42,3.17,3.17,0,0,0-.16.56,5.35,5.35,0,0,1-.24.67.9.9,0,0,0,.21.94A1.31,1.31,0,0,0,83.58,115.9Z"/><path class="cls-5" d="M85.06,118.2a1,1,0,0,0-.29.83.62.62,0,0,0,.07.19s0,0,0,0h0a.64.64,0,0,0,.68-.24.91.91,0,0,0,.2-.32,5.62,5.62,0,0,0,.15-.55,1.52,1.52,0,0,1,.23-.57C85.78,117.81,85.35,117.87,85.06,118.2Z"/><path class="cls-5" d="M81.76,116.44a1,1,0,0,0,.17-.44.9.9,0,0,0-.09-.43,1.52,1.52,0,0,0-.31-.48,2,2,0,0,0-.22-.19,1,1,0,0,1-.18-.27c0,.09-.06.18-.08.27s0,.19,0,.29a1.74,1.74,0,0,0,.06.51,1.22,1.22,0,0,0,.25.51c.08.08.27.25.4.24h0Z"/><path class="cls-5" d="M84.53,119.93l.19.09a2,2,0,0,0,.26.09.93.93,0,0,0,.47,0c.31-.08.75-.35,1-.4,0,0-.11,0-.15,0l-.17-.06a2.62,2.62,0,0,0-.38-.09,1.31,1.31,0,0,0-.76,0,.94.94,0,0,0-.22.12.3.3,0,0,0-.08.08l-.18.18A.06.06,0,0,1,84.53,119.93Z"/><polygon class="cls-5" points="84.44 119.93 84.46 119.92 84.46 119.92 84.44 119.93"/><path class="cls-5" d="M85.07,120.51c-.58-.09-.71.4-1.13.66,0,.22.66.38,1.07.25a2.3,2.3,0,0,0,.57-.32c.18-.13.42-.18.58-.32A2.77,2.77,0,0,0,85.07,120.51Z"/><path class="cls-5" d="M84,120.44a2,2,0,0,1-.27-.84.59.59,0,0,1,0-.13.74.74,0,0,0-.29.42,2.07,2.07,0,0,0-.14.78.91.91,0,0,0,.4.72A.87.87,0,0,0,84,120.44Z"/><path class="cls-5" d="M82.47,122.36c-.06-.11-.14-.21-.16-.26l0-.09v0a.44.44,0,0,0-.16-.26.26.26,0,0,0-.14,0,1.69,1.69,0,0,0-1,.67,1.63,1.63,0,0,1,.51,0,1.2,1.2,0,0,1,.53.18l.19.11.13.08a.18.18,0,0,0,.14,0C82.61,122.67,82.55,122.52,82.47,122.36Z"/><path class="cls-5" d="M84,123.08l-.26-.23a2.34,2.34,0,0,0-.31-.24.48.48,0,0,0-.67,0,.86.86,0,0,0-.07.1c0,.11.06.26.14.33a.55.55,0,0,0,.42.07,4.18,4.18,0,0,1,.5,0,1.81,1.81,0,0,1,.23,0l.15,0,.12,0A2,2,0,0,0,84,123.08Z"/><path class="cls-5" d="M86.17,125.76a1.4,1.4,0,0,1-.35-.1,2.72,2.72,0,0,0-.47-.19.62.62,0,0,0-.8.37c-.09.16.11.29.28.37a.63.63,0,0,0,.5-.06c.39-.16.8-.2,1.19-.33Z"/><path class="cls-5" d="M82.56,120.44h0Z"/><path class="cls-5" d="M82.76,122.53c.06,0,.15-.14.16-.18s.12-.25.18-.37a1.41,1.41,0,0,0,.19-.59,1.13,1.13,0,0,0-.72-1s0,0,0,0h0a2.16,2.16,0,0,1,.19,1.62.86.86,0,0,0,0,.23S82.72,122.49,82.76,122.53Z"/><path class="cls-5" d="M82.31,118.19h0c-.26-.36-.31-.84-1.27-.42a.54.54,0,0,0-.26.09,2.91,2.91,0,0,1,.61.22c.18.12.35.26.52.39s.45.34.55.22S82.39,118.3,82.31,118.19Z"/><path class="cls-5" d="M81.8,117a2.24,2.24,0,0,0-.32-.37,1.44,1.44,0,0,0-.37-.28,1.13,1.13,0,0,0-.43-.13h-.24l-.27.05h0a0,0,0,0,0,0,0,3.89,3.89,0,0,0,.46.53,1.37,1.37,0,0,0,.39.29.66.66,0,0,0,.34,0l.22-.07a1,1,0,0,1,.23,0Z"/><path class="cls-5" d="M80.2,116.28Z"/><polygon class="cls-5" points="80.2 116.27 80.2 116.28 80.2 116.28 80.2 116.27"/><path class="cls-5" d="M84,117.37l0,0,.34-.19a2.47,2.47,0,0,0,.28-.28c-.32.23-.84,0-1.2.16s-.48.67-.63,1l0,0h0c0,.09.21.11.3.1a.57.57,0,0,0,.32-.18c.1-.09.18-.2.27-.29A2,2,0,0,1,84,117.37Z"/><path class="cls-5" d="M84.66,119.23a1.9,1.9,0,0,1-.37-.75,1.28,1.28,0,0,1-.15.25,1.44,1.44,0,0,0-.2.78.47.47,0,0,0,.52.41h0A.53.53,0,0,0,84.66,119.23Z"/><path class="cls-5" d="M82.7,118.83h0c.28,0,.6-.06.77.24a.42.42,0,0,0-.24-.5.6.6,0,0,0-.54.27h0Z"/><path class="cls-5" d="M82.7,118.83h0Z"/><path class="cls-5" d="M81.62,119.73h0Z"/><path class="cls-5" d="M82.29,120.19a.41.41,0,0,0-.07-.54.6.6,0,0,0-.6.09h0C81.9,119.83,82.22,119.86,82.29,120.19Z"/><path class="cls-5" d="M80.65,125.84a.41.41,0,0,0-.46-.28.6.6,0,0,0-.31.52h0v0h0C80.12,125.93,80.35,125.69,80.65,125.84Z"/><path class="cls-5" d="M79.88,126.08h0Z"/><path class="cls-5" d="M82.59,116a2.9,2.9,0,0,0,0-.59,1.46,1.46,0,0,1,.15-.57,4.4,4.4,0,0,1-.43.52,1,1,0,0,0-.3.52,3,3,0,0,0,0,.52c0,.08,0,.16,0,.23s0,.24,0,.26l0,0C82.32,116.75,82.54,116.26,82.59,116Z"/><path class="cls-5" d="M78.79,123.8c.24-.23.17-.77.07-1a2.87,2.87,0,0,0-.28-.48,1.28,1.28,0,0,1-.23-.43c0,.36-.21.76,0,1.1a2.6,2.6,0,0,0,.24.47,1.6,1.6,0,0,1,.23.42S78.79,123.81,78.79,123.8Z"/><path class="cls-5" d="M82.2,121.31c0-.11-.08-.27-.12-.35a1.27,1.27,0,0,0-.39-.41,3.51,3.51,0,0,1-.36-.29,2.07,2.07,0,0,1-.22-.35h0a1.55,1.55,0,0,0,.23,1,.86.86,0,0,0,.41.39c.1,0,.3.18.41.09S82.19,121.33,82.2,121.31Z"/><path class="cls-5" d="M83.34,119.35c-.27.07-.78.12-.86.45h0C82.88,120.16,83.16,119.71,83.34,119.35Z"/><path class="cls-5" d="M79.79,124.13A1.84,1.84,0,0,0,80,124a.76.76,0,0,0,.39-.4,1.72,1.72,0,0,1,.11-.29c-.07.12-.35.13-.46.15a2,2,0,0,0-.53.2c-.1.06-.42.31-.23.45a.25.25,0,0,0,.17,0Z"/><path class="cls-5" d="M84.06,126a1.58,1.58,0,0,0,.22-1,1.55,1.55,0,0,0-.41-.82,3.39,3.39,0,0,1-.37-.56c-.07-.12-.11-.34-.26-.39a3.05,3.05,0,0,0,.11,3.1c.1.07.31,0,.38,0A1.08,1.08,0,0,0,84.06,126Z"/><path class="cls-5" d="M88.7,121.86c.12-.23.16-.49.29-.71s.4-.39.53-.61l0,0c-.22-.07-.57.23-.78.29s-.53.07-.78.16c-.66.26-.55.83-.59,1.4C87.91,122.37,88.44,122.36,88.7,121.86Z"/><path class="cls-5" d="M86.49,121a1.27,1.27,0,0,0-.08.37,2.1,2.1,0,0,0-.21.74c0,.21.14,1,.44,1h0s0,0,0,0a.32.32,0,0,0,.1-.1h0a1.64,1.64,0,0,0,.24-.87C87,121.64,86.63,121.36,86.49,121Z"/><path class="cls-5" d="M85.84,124a2.42,2.42,0,0,0,0-.66,2.13,2.13,0,0,0-.52-1.28.24.24,0,0,0,0-.08c-.06.43-.34.76-.4,1.19a1.48,1.48,0,0,0,.2,1.09.34.34,0,0,0,.17.13C85.44,124.43,85.79,124.17,85.84,124Z"/><path class="cls-5" d="M78,123.92a.26.26,0,0,0,.06-.19c0-.14-.29-.36-.48-.34a2.26,2.26,0,0,0-.56.17,1.84,1.84,0,0,0-.92.8l-.07,0c.38-.07.74.07,1.12,0A1.36,1.36,0,0,0,78,123.92Z"/><path class="cls-5" d="M89.46,123.09c-.26,0-.38-.19-.58-.3a1.94,1.94,0,0,0-.72-.11,1.29,1.29,0,0,0-.68,0c-.15.07-.53.32-.48.55.06.46.9.2,1.17.2a1.72,1.72,0,0,0,.6,0,3.53,3.53,0,0,0,.59-.35Z"/><path class="cls-5" d="M89.19,124.46c-.08-.18-.6-.21-.78-.28a4.63,4.63,0,0,0-.83-.23,1.51,1.51,0,0,0-.87.11c-.2.11-.51.42-.43.68s.45.42.64.45a2.15,2.15,0,0,0,.84,0,2.88,2.88,0,0,0,.74-.42C88.69,124.66,89.14,124.72,89.19,124.46Z"/><path class="cls-5" d="M86.83,127.41h0c0-.07-.11-.09-.19-.13a2.2,2.2,0,0,1-.54-.41,2.18,2.18,0,0,0-.66-.24c-.49-.13-1.19-.12-1.26.52,0,.12.3.11.48.2s.47.2.7.29a1.08,1.08,0,0,0,.73.05,2.54,2.54,0,0,1,.38-.16,2.47,2.47,0,0,0,.36-.11Z"/><path class="cls-5" d="M86.51,129.29a1.93,1.93,0,0,1-.51-.35,6.41,6.41,0,0,0-.68-.48,1.49,1.49,0,0,0-.67-.26c-.19,0-.47.12-.51.34a.53.53,0,0,0,.33.54,1.64,1.64,0,0,0,.68.35c.26,0,.49-.11.74-.1a4,4,0,0,0,.77,0A.67.67,0,0,0,86.51,129.29Z"/><path class="cls-5" d="M85.81,130.33h0a3.48,3.48,0,0,1-.67-.66,1.43,1.43,0,0,0-.69-.47c-.27-.12-.5-.32-.78-.43a1.34,1.34,0,0,0-.74,0c-.29-.14-.77,0-.38.47a2.51,2.51,0,0,0,.71.58,4.5,4.5,0,0,0,2,.5,5.07,5.07,0,0,0,.54.09Z"/><path class="cls-5" d="M82.19,125.79c-.09-.13-.09-.13-.11,0s.06.31,0,.49a2.13,2.13,0,0,0,0,.87,1.08,1.08,0,0,0,.15.28.71.71,0,0,0,.23.26c.35.25.47-.39.44-.63A2.9,2.9,0,0,0,82.19,125.79Z"/><path class="cls-5" d="M82.74,128a.6.6,0,0,0-.15-.18h0c.16-.4-.43-.72-.7-.83s-.84.06-1.16-.15c0,.05,0,.09.09.14a3.24,3.24,0,0,0,.72.83C81.87,128.09,82.93,128.35,82.74,128Z"/><path class="cls-5" d="M81.26,129.05c.23,0,.86-.19.7-.48-.31-.77-1.22-.28-1.57.27C80.72,128.8,81,129,81.26,129.05Z"/><path class="cls-5" d="M81.39,125s0,0,0,0c.06-.19-.12-.5-.22-.64s-.54-.57-.49-.66a1.4,1.4,0,0,0,.26,1.26C81.05,125,81.3,125.12,81.39,125Z"/><path class="cls-5" d="M82.73,131c.15-.44.58-1,.49-1.51a1.05,1.05,0,0,0-1-.87c-.33.12.48,1.93.51,2.27Z"/><path class="cls-5" d="M80.84,128.65l0,0Z"/><path class="cls-5" d="M81.76,131.05c-.13-.61.23-1.58-.64-1.7h0c-.07-.11-.29-.33-.33-.13s0,.22.06.29l.06.26a1.57,1.57,0,0,0,.12.57,1.31,1.31,0,0,0,.33.44,1.22,1.22,0,0,0,.38.26v0S81.74,131.05,81.76,131.05Z"/><path class="cls-5" d="M79,124.27l0,0c-.31-.16-.38-.38-.51-.43h0s0,0-.06,0l-.06,0-.07,0h0a.73.73,0,0,0-.27.28,6.09,6.09,0,0,0-.25.57.76.76,0,0,0-.09.18,1.8,1.8,0,0,1,.46-.23l.14,0a.7.7,0,0,1,.14,0,1,1,0,0,1,.25,0,3,3,0,0,0,.45,0l.07,0,0,0C79.19,124.42,79.09,124.33,79,124.27Z"/><path class="cls-5" d="M80.5,125.37c.07-.21-.19-.33-.31-.4h0c-.38-.24-.6-.67-1.34.08a.49.49,0,0,0-.2.17,3.08,3.08,0,0,1,.64,0c.21,0,.42.11.63.17S80.45,125.52,80.5,125.37Z"/><path class="cls-5" d="M85.49,115.2a2.2,2.2,0,0,1,1.78.16l0,.06a2.11,2.11,0,0,0-1.69-.08,4.07,4.07,0,0,0-1.62.91c-.48.43-.54.93-.91,1.43-.11-.07-.07-.25,0-.37A3.86,3.86,0,0,1,85.49,115.2Z"/><path class="cls-5" d="M83.47,116.62a.46.46,0,0,1,.6-.13.68.68,0,0,1,.14.67v0h0v0h0C84,116.9,83.85,116.57,83.47,116.62Z"/><path class="cls-5" d="M84.22,117.15h0Z"/><path class="cls-5" d="M86.18,115.1c-.17-.34.09-.88.3-1.15a3.63,3.63,0,0,1,.47-.41c.1-.08.35-.27.39-.38-.13.38,0,.88-.34,1.19a2.78,2.78,0,0,1-.42.42,1.6,1.6,0,0,0-.4.37Z"/><path class="cls-5" d="M85,115.09a1.08,1.08,0,0,1-.24-.18.89.89,0,0,1-.28-.56,1.36,1.36,0,0,0,0-.35c0,.15.33.26.44.32a2.44,2.44,0,0,1,.5.4c.08.1.34.48.08.56a.32.32,0,0,1-.19,0Z"/><path class="cls-5" d="M87,115.52a.3.3,0,0,1,0-.22c0-.16.44-.29.64-.2a2.23,2.23,0,0,1,.53.38,2.09,2.09,0,0,1,.71,1.18l0,.07c-.37-.21-.81-.19-1.19-.4A1.46,1.46,0,0,1,87,115.52Z"/><path class="cls-5" d="M87,116.45c-.05-.42,0-.86-.27-1.1s-.35.08-.91.17c-.15,0-.38.11-.3.26s.45.16.56.2a1.92,1.92,0,0,1,.94.68A1.65,1.65,0,0,0,87,116.45Z"/><path class="cls-5" d="M83.8,116.17c0-.24.32-.28.47-.32h0c.49-.12.88-.51,1.4.56a.53.53,0,0,1,.16.25,3.12,3.12,0,0,0-.68-.24c-.25,0-.49,0-.74,0S83.8,116.35,83.8,116.17Z"/><path class="cls-5" d="M118.17,129.77l-.2.28c-.8,1.09-1.63,2.19-2.48,3.3a13,13,0,0,1-1.22-.82c-.89-.68-1.46-1.59-2.28-2.29a15.15,15.15,0,0,0-2.36-1.66c-.26-.14-.52-.28-.79-.41l-.29-.13h0l-.35-.12-.11,0h0l-.35-.12-.45-.14h0a3.19,3.19,0,0,1-.37-.13l-.34-.13-.08,0a.06.06,0,0,1,0,0l-.18-.09a.57.57,0,0,0,.22,0h.17l.49-.06h0a3.21,3.21,0,0,1,.6-.06l.19,0a2.77,2.77,0,0,1,.5.1l.24.06a2.32,2.32,0,0,1,.37.13l.2.07.2.09a6.52,6.52,0,0,1,1.85,1.13,5.12,5.12,0,0,1,.49.45c.51.56,3.48,4,4.25,2.89.47-.66-2.46-2.54-3.49-3.22l-.26-.18a17.83,17.83,0,0,1-1.61-1.29l-.23-.22-.12-.12a6.73,6.73,0,0,1-.55-.67l-.15-.21,0-.05c-.24-.38-.46-.76-.66-1.15l-.21-.38q-.15-.3-.33-.6a2.67,2.67,0,0,0-.25-.43,1.76,1.76,0,0,0-.14-.23c0-.06-.08-.12-.12-.19l.12.17.17.22.29.33a4.7,4.7,0,0,0,.51.49l.3.24c.31.23.63.45,1,.66s.53.3.81.45l0,0,.67.35a11.55,11.55,0,0,1,3.59,3.27l.49.59a1.93,1.93,0,0,0,0-.48c-.13-1.62-1.65-3.43-2.48-4.64a21.48,21.48,0,0,0-1.41-1.91c-.51-.6-1.06-1.11-1.47-1.15a3.54,3.54,0,0,1,1.69.83,15.91,15.91,0,0,1,1.57,1.41,18.94,18.94,0,0,1,2.61,3.43C116.87,128.23,117.64,129,118.17,129.77Z"/><path class="cls-5" d="M119.43,128c-.35.48-.69,1-1.05,1.44a13.32,13.32,0,0,0-.38-2,25.41,25.41,0,0,0-1.77-3.81c.8.93,2.07,1.58,2.71,2.85A5.19,5.19,0,0,1,119.43,128Z"/><path class="cls-5" d="M120.81,126.07a9.5,9.5,0,0,0-.2-2.59,4.34,4.34,0,0,1,1,1.42Z"/><path class="cls-5" d="M99.17,127.93a23.81,23.81,0,0,0-4.54-7.22,41.4,41.4,0,0,1,4.08,7.6c.3.71,3,7.69,3.46,7.51.13,0,.13-.25.09-.41a33.52,33.52,0,0,0-1.57-3.73C100.21,130.42,99.72,129.16,99.17,127.93Z"/><path class="cls-5" d="M98.25,128.07a23.74,23.74,0,0,0-5-6.83,41.23,41.23,0,0,1,4.59,7.26c.36.68,3.49,7.46,4,7.23.13-.06.11-.27.06-.43a33.75,33.75,0,0,0-1.82-3.6C99.46,130.48,98.88,129.26,98.25,128.07Z"/><path class="cls-5" d="M98.32,129.52A16.26,16.26,0,0,0,93,124.58a29.42,29.42,0,0,1,5,5.53c.4.55,4,6.12,4.43,5.72.1-.11,0-.31,0-.45a27.32,27.32,0,0,0-2.07-2.91C99.69,131.47,99,130.47,98.32,129.52Z"/><path class="cls-5" d="M100.55,129.05A13.65,13.65,0,0,0,97.9,124a24.06,24.06,0,0,1,2.27,5.36c.16.51,1.43,5.47,1.82,5.32.1,0,.12-.19.11-.3a20.65,20.65,0,0,0-.79-2.65C101.07,130.82,100.83,129.92,100.55,129.05Z"/><path class="cls-5" d="M101.36,128a13.62,13.62,0,0,0-1.26-5.56,23.13,23.13,0,0,1,.8,5.7c0,.52-.05,5.52.38,5.52.11,0,.17-.14.18-.25a17.43,17.43,0,0,0-.07-2.7C101.4,129.83,101.4,128.93,101.36,128Z"/><path class="cls-5" d="M97.75,130.66A11,11,0,0,0,93,128.22a20,20,0,0,1,4.61,3c.39.32,4.07,3.64,4.26,3.24.06-.11,0-.25-.09-.34a18.11,18.11,0,0,0-2-1.69C99.11,131.79,98.44,131.2,97.75,130.66Z"/><path class="cls-5" d="M98.05,131.78a10.49,10.49,0,0,0-4.84-2,19.37,19.37,0,0,1,4.78,2.5c.41.28,4.31,3.24,4.47,2.82a.35.35,0,0,0-.12-.33,16.2,16.2,0,0,0-2.15-1.49C99.48,132.79,98.78,132.26,98.05,131.78Z"/><path class="cls-5" d="M105.26,130.31a19.76,19.76,0,0,1,3.8-5.8,33.8,33.8,0,0,0-3.42,6.11c-.26.58-2.52,6.2-2.92,6-.11,0-.11-.21-.07-.34a28.21,28.21,0,0,1,1.32-3C104.39,132.32,104.81,131.3,105.26,130.31Z"/><path class="cls-5" d="M106,130.44a19.3,19.3,0,0,1,4.18-5.48,33.72,33.72,0,0,0-3.83,5.83c-.3.55-3,6-3.34,5.81-.1,0-.08-.22,0-.34a26.84,26.84,0,0,1,1.53-2.9C105,132.38,105.48,131.4,106,130.44Z"/><path class="cls-5" d="M105.93,131.61a13.27,13.27,0,0,1,4.36-3.93,23.74,23.74,0,0,0-4.11,4.41c-.34.44-3.38,4.92-3.68,4.58-.08-.09,0-.25,0-.36a20.9,20.9,0,0,1,1.72-2.33C104.79,133.18,105.35,132.38,105.93,131.61Z"/><path class="cls-5" d="M104.13,131.19a11,11,0,0,1,2.23-4.07,19.08,19.08,0,0,0-1.92,4.32c-.14.41-1.25,4.42-1.56,4.29-.09,0-.1-.15-.09-.25a16.51,16.51,0,0,1,.69-2.13C103.68,132.62,103.89,131.9,104.13,131.19Z"/><path class="cls-5" d="M103.49,130.35a10.93,10.93,0,0,1,1.11-4.49,18.35,18.35,0,0,0-.74,4.62c0,.42,0,4.48-.39,4.47-.09,0-.14-.11-.15-.2a16.13,16.13,0,0,1,.1-2.19C103.43,131.82,103.44,131.09,103.49,130.35Z"/><path class="cls-5" d="M106.38,132.54a9,9,0,0,1,3.86-1.9,15.7,15.7,0,0,0-3.78,2.33c-.33.25-3.37,2.89-3.52,2.56,0-.08,0-.2.08-.27a15.18,15.18,0,0,1,1.68-1.34C105.26,133.45,105.81,133,106.38,132.54Z"/><path class="cls-5" d="M106.12,133.45a8.68,8.68,0,0,1,4-1.52,15.63,15.63,0,0,0-3.92,2c-.34.22-3.55,2.57-3.67,2.22a.29.29,0,0,1,.1-.27,14.64,14.64,0,0,1,1.77-1.17C104.94,134.25,105.52,133.83,106.12,133.45Z"/><path class="cls-5" d="M98.66,132.41a16.39,16.39,0,0,0-4.91-2.87,28.15,28.15,0,0,1,4.76,3.24c.4.32,4.13,3.62,4.37,3.36.06-.07,0-.19-.08-.27a23.46,23.46,0,0,0-2.08-1.72C100.05,133.56,99.37,133,98.66,132.41Z"/><path class="cls-5" d="M98.17,132.77a16.33,16.33,0,0,0-5.08-2.49,27.29,27.29,0,0,1,5,2.88c.43.29,4.37,3.32,4.59,3,.05-.07,0-.19-.1-.27a23.32,23.32,0,0,0-2.19-1.56C99.62,133.83,98.91,133.28,98.17,132.77Z"/><path class="cls-5" d="M98.66,133.6A11.09,11.09,0,0,0,94,132.3,20,20,0,0,1,98.66,134c.4.2,4.28,2.38,4.38,2,0-.09-.07-.2-.15-.26a17.61,17.61,0,0,0-2.12-1.08C100.07,134.33,99.37,134,98.66,133.6Z"/><path class="cls-5" d="M99.82,132.65a9.16,9.16,0,0,0-3.13-2.17,16.23,16.23,0,0,1,3,2.46c.25.25,2.54,2.78,2.72,2.57,0,0,0-.15,0-.21a13.29,13.29,0,0,0-1.29-1.31C100.68,133.53,100.26,133.08,99.82,132.65Z"/><path class="cls-5" d="M100,131.81a9.09,9.09,0,0,0-2.47-2.89A15.37,15.37,0,0,1,99.75,132c.18.3,1.69,3.26,1.94,3.13a.18.18,0,0,0,0-.21,11.5,11.5,0,0,0-.88-1.56C100.56,132.86,100.28,132.32,100,131.81Z"/><path class="cls-5" d="M98.68,134.44a7.39,7.39,0,0,0-3.53,0,13.4,13.4,0,0,1,3.63.34c.33.07,3.52.91,3.51.61,0-.08-.09-.14-.16-.17a11.47,11.47,0,0,0-1.72-.37C99.83,134.7,99.25,134.56,98.68,134.44Z"/><path class="cls-5" d="M99.2,135a6.92,6.92,0,0,0-3.45.31,12.64,12.64,0,0,1,3.58,0c.33,0,3.55.6,3.51.3,0-.08-.11-.14-.18-.16a11.24,11.24,0,0,0-1.72-.22C100.36,135.17,99.78,135.08,99.2,135Z"/><path class="cls-5" d="M103.34,127.77A21.29,21.29,0,0,0,102,119a35.81,35.81,0,0,1,.59,8.89c0,.8-.69,8.46,0,8.53.17,0,.28-.18.31-.34a28.7,28.7,0,0,0,.2-4.16C103.2,130.55,103.3,129.16,103.34,127.77Z"/><path class="cls-5" d="M102.24,127.48a21.46,21.46,0,0,0-2-8.61,36.4,36.4,0,0,1,1.34,8.81c0,.8,0,8.49.67,8.5.17,0,.26-.2.29-.36a30.53,30.53,0,0,0-.16-4.16C102.33,130.26,102.32,128.87,102.24,127.48Z"/><path class="cls-5" d="M101.56,128.85a15.66,15.66,0,0,0-3.3-7,27.35,27.35,0,0,1,2.65,7.37c.17.7,1.33,7.52,2,7.32.16,0,.22-.26.22-.42a23.76,23.76,0,0,0-.8-3.63C102.08,131.29,101.86,130.06,101.56,128.85Z"/><path class="cls-5" d="M104.29,129.43a12.06,12.06,0,0,0-.32-5.89,20.85,20.85,0,0,1-.26,6c-.08.54-1.24,5.72-.73,5.76.14,0,.24-.13.28-.24a16.58,16.58,0,0,0,.49-2.8C104,131.31,104.15,130.37,104.29,129.43Z"/><path class="cls-5" d="M105.71,131.86a11.9,11.9,0,0,0,1.48-5.72,20.83,20.83,0,0,1-2.06,5.64c-.24.49-2.92,5.09-2.44,5.28a.32.32,0,0,0,.33-.15,16,16,0,0,0,1.32-2.53C104.82,133.55,105.29,132.71,105.71,131.86Z"/><path class="cls-5" d="M100.35,129.65a12.2,12.2,0,0,0-4-4.41,21.06,21.06,0,0,1,3.59,4.84c.27.47,2.64,5.23,3.07,4.94.11-.07.1-.24.07-.35a17.53,17.53,0,0,0-1.4-2.5C101.27,131.32,100.83,130.47,100.35,129.65Z"/><path class="cls-5" d="M100.1,130.82a12.2,12.2,0,0,0-4.38-4,20.85,20.85,0,0,1,4,4.49c.31.45,3.12,5,3.51,4.65a.34.34,0,0,0,0-.36,17.94,17.94,0,0,0-1.62-2.36C101.17,132.41,100.65,131.6,100.1,130.82Z"/><path class="cls-5" d="M63.27,109.87l.41.38A4.78,4.78,0,0,0,65,111.34c.6.31,1.25.47,1.88.72a2.88,2.88,0,0,1,1.87,2.85,3.43,3.43,0,0,0-.87-3.65,3.47,3.47,0,0,1,1.8.73,5.06,5.06,0,0,1,2,2,4.36,4.36,0,0,0-1.11-2,6.37,6.37,0,0,0-.8-.76c-.25-.2-.61-.28-.82-.53a8.81,8.81,0,0,0,3.51-1.79,5.84,5.84,0,0,0,1.62-2,10.34,10.34,0,0,1-2.42,2.06,8.06,8.06,0,0,1-1.22.59,6.8,6.8,0,0,1-1.73.4c-.37,0-1.24-.15-1.52,0a24.49,24.49,0,0,0,2.69-1.55,7.35,7.35,0,0,1,3.07-1.84A8,8,0,0,0,69.25,108c-.37.23-1.39,1.4-1.78,1.22A11.09,11.09,0,0,1,70.86,106a20.42,20.42,0,0,0-4,2.65c.06-.86,2.63-3.57,3.47-3.45-1.55-.22-3.7,2.15-4.64,3.19.35-.73,1.17-1.32,1.52-2.14a5.17,5.17,0,0,0,.4-2.79,6.44,6.44,0,0,1-1.42,2.22c-.45.47-1.23,1.35-1.87,1.49a6.05,6.05,0,0,0,1.22-2.6,10.23,10.23,0,0,0-.49-2.63,17,17,0,0,1-.41,2.82,9.49,9.49,0,0,1-.77,1.76,21.92,21.92,0,0,0-.14-2.41,13,13,0,0,0-.21-2.92,4.93,4.93,0,0,0-1-2.48c.49.37.5,2.24.52,2.81,0,1.09.25,2.92-.49,3.84a9,9,0,0,0-.9-3.72,6.54,6.54,0,0,1-1.12-3.1,13.28,13.28,0,0,0,0,3.45c.13.46.27.9.44,1.34s1.45,3.09.88,3.32c-.84.33-1.26-2.72-1.35-3.22a4.82,4.82,0,0,0-.83-1.9,3.74,3.74,0,0,0-.71-.78c-.15-.12-.82-.37-.88-.5.26.52.8,1,1.12,1.52a10.13,10.13,0,0,1,1,2.34c.21.71.2,1.44.45,2.15a8,8,0,0,0,1.73,2.83C62.65,109.35,63,109.6,63.27,109.87Z"/><rect class="cls-5" x="19.06" y="69.59" width="1.34" height="6.71"/><rect class="cls-5" x="29.8" y="73.62" width="1.34" height="6.71"/><rect class="cls-5" x="40.53" y="78.98" width="1.34" height="6.71"/><text class="cls-7" transform="translate(167.8 122.35)">Yatribhet</text><text class="cls-8" transform="translate(175.08 170.58)">Heaven is myth, Nepal is real</text><path class="cls-4" d="M20.72,58.1,20.56,58h0l0,0-.18-.14-.2-.15L20,57.58l-.3-.23a1.57,1.57,0,0,0-.21-.17l-.2-.17a1.54,1.54,0,0,1-.23-.18l-.2-.16L20.59,59l.24-.8Zm-.45,2a.07.07,0,0,1,0-.05S20.25,60.08,20.27,60.13ZM18.06,73.31v.41l.26,0c0-.2,0-.39,0-.58ZM20.72,58.1,20.56,58h0l0,0,0,0-.18-.14-.2-.15L20,57.58l-.3-.23a1.57,1.57,0,0,0-.21-.17l-.2-.17a1.54,1.54,0,0,1-.23-.18l-.2-.16L20.59,59l.24-.8Zm-.45,2a.07.07,0,0,1,0-.05S20.25,60.08,20.27,60.13ZM18.06,73.31v.41l.26,0c0-.2,0-.39,0-.58ZM20.72,58.1,20.56,58h0l0,0,0,0-.18-.14-.2-.15L20,57.58l-.3-.23-.21-.17-.2-.17a1.54,1.54,0,0,1-.23-.18l-.2-.16L20.59,59l.24-.8Zm-.45,2a.07.07,0,0,1,0-.05S20.25,60.08,20.27,60.13ZM18.06,73.72l.26,0c0-.2,0-.39,0-.58l-.27.14Zm105.86-42.4A65.71,65.71,0,0,0,9.51,66.88C9.26,68.94,9.11,71,9,73.15c0,.58,0,1.17,0,1.76a64.83,64.83,0,0,0,1.17,12.35c0,.24.17,1,.45,2.2a64,64,0,0,0,3,9.59c.44,1.14.92,2.26,1.44,3.37.93,2.19,2,4.54,3.27,7,6.21,12.38,16.64,28.18,34.11,45.42q2.44,2.43,5.09,4.88,6.57,6.12,14.37,12.39a4.61,4.61,0,0,0,5.83,0q6.12-4.92,11.47-9.75a214.53,214.53,0,0,0,26.28-28.06c.87-1.14,1.72-2.26,2.53-3.38.08-.1.15-.2.21-.29a2.86,2.86,0,0,0,.22-.3c.37-.49.72-1,1.07-1.47.48-.68,1-1.35,1.41-2l.81-1.19c2.91-4.29,5.36-8.36,7.44-12.16,1.15-2.09,2.17-4.1,3.09-6s1.63-3.47,2.31-5.08a64.71,64.71,0,0,0,4.4-13c.1-.47.19-.86.26-1.18h0v0c.1-.52.17-.85.19-1a69.94,69.94,0,0,0,1.13-10.21c0-.71,0-1.43,0-2.14A65.68,65.68,0,0,0,123.92,31.32Zm6.94,49.86c0,.4-.08.8-.15,1.19-.14,1.1-.32,2.19-.53,3.27a.5.5,0,0,1,0,.12.28.28,0,0,0,0,.09c0,.17-.14.69-.31,1.48v.06A54.9,54.9,0,0,1,126,98.6s0,.11-.08.14c-1.13,2.68-2.5,5.62-4.16,8.76-1,1.93-2.13,3.94-3.38,6-1.84,3.09-3.94,6.35-6.35,9.76-.07.1-.16.21-.23.32-.57.79-1.15,1.6-1.75,2.41-.23.3-.44.6-.67.89a.61.61,0,0,1-.07.1l-.49.64h0l-.38.48-.35.48-.13.15c-.15.2-.31.4-.46.61l0,0a213.68,213.68,0,0,1-32.74,33.15,229.48,229.48,0,0,1-22.34-21,162.19,162.19,0,0,1-23.7-32.24c-2.11-3.85-3.8-7.4-5.16-10.6,0,0,0-.11-.06-.14-.21-.44-.41-.89-.6-1.33a58.79,58.79,0,0,1-3.22-9.88v-.06c-.2-.79-.27-1.31-.31-1.48s0-.14,0-.24a55.84,55.84,0,0,1-1-10.07v-.66c0-.38,0-.75,0-1.13,0-.2,0-.39,0-.58,0-1,.09-1.88.15-2.81a56.55,56.55,0,0,1,1.79-10.23.07.07,0,0,1,0-.05c.1-.37.2-.73.31-1.1h0l.24-.8a.58.58,0,0,1,.05-.14A56.45,56.45,0,0,1,131,69.71a2.29,2.29,0,0,1,0,.25c.08.9.14,1.8.17,2.72,0,.73.05,1.46.05,2.2,0,.34,0,.69,0,1C131.17,77.68,131.06,79.44,130.86,81.18ZM18.06,73.31v.41l.26,0c0-.2,0-.39,0-.58Zm2.21-13.18a.07.07,0,0,1,0-.05S20.25,60.08,20.27,60.13Zm.45-2L20.56,58h0l0,0,0,0-.18-.14-.2-.15L20,57.58l-.3-.23a1.57,1.57,0,0,0-.21-.17l-.2-.17a1.54,1.54,0,0,1-.23-.18l-.2-.16L20.59,59l.24-.8ZM18.06,73.31v.41l.26,0c0-.2,0-.39,0-.58Zm2.21-13.18a.07.07,0,0,1,0-.05S20.25,60.08,20.27,60.13Zm.45-2L20.56,58h0l0,0,0,0-.18-.14-.2-.15L20,57.58l-.3-.23a1.57,1.57,0,0,0-.21-.17l-.2-.17a1.54,1.54,0,0,1-.23-.18l-.2-.16L20.59,59l.24-.8ZM18.06,73.31v.41l.26,0c0-.2,0-.39,0-.58Zm2.21-13.18a.07.07,0,0,1,0-.05S20.25,60.08,20.27,60.13Zm.45-2L20.56,58h0l0,0-.18-.14-.2-.15L20,57.58l-.3-.23a1.57,1.57,0,0,0-.21-.17l-.2-.17a1.54,1.54,0,0,1-.23-.18l-.2-.16L20.59,59l.24-.8Z"/><path class="cls-5" d="M13.33,55.78l-.17-.12h0l0,0,0,0-.2-.16a2.68,2.68,0,0,1-.23-.17l-.07,0-.34-.27c-.08-.07-.17-.13-.24-.2l-.23-.18-.26-.21-.23-.18,1.94,2.63.27-.91Zm-.51,2.32a.07.07,0,0,1,0-.06S12.8,58,12.82,58.1Zm-2.52,15v.47l.3,0c0-.22,0-.44,0-.66C10.5,73,10.4,73.07,10.3,73.13Zm3-17.35-.17-.12h0l0,0,0,0-.2-.16a2.68,2.68,0,0,1-.23-.17l-.07,0-.34-.27c-.08-.07-.17-.13-.24-.2l-.23-.18-.26-.21-.23-.18,1.94,2.63.27-.91Zm-.51,2.32a.07.07,0,0,1,0-.06S12.8,58,12.82,58.1Zm-2.52,15v.47l.3,0c0-.22,0-.44,0-.66C10.5,73,10.4,73.07,10.3,73.13Zm3-17.35-.17-.12h0l0,0,0,0-.2-.16a2.68,2.68,0,0,1-.23-.17l-.07,0-.34-.27-.24-.2-.23-.18-.26-.21-.23-.18,1.94,2.63.27-.91Zm-.51,2.32a.07.07,0,0,1,0-.06S12.8,58,12.82,58.1ZM10.3,73.6l.3,0c0-.22,0-.44,0-.66-.12.06-.22.1-.32.16ZM131,25.25A74.93,74.93,0,0,0,.56,65.8C.27,68.14.09,70.53,0,72.94c0,.68,0,1.35,0,2A74,74,0,0,0,1.33,89c0,.27.2,1.09.51,2.51a73.5,73.5,0,0,0,3.38,10.94c.51,1.29,1,2.57,1.64,3.83,1.06,2.5,2.3,5.19,3.73,8,7.08,14.11,19,32.13,38.89,51.79,1.87,1.85,3.8,3.7,5.81,5.56q7.49,7,16.38,14.13a5.29,5.29,0,0,0,6.66,0q7-5.61,13.08-11.12a244.63,244.63,0,0,0,30-32c1-1.3,2-2.58,2.89-3.85.09-.11.16-.23.24-.33l.25-.34c.41-.57.81-1.13,1.22-1.68l1.61-2.3.92-1.36c3.31-4.89,6.12-9.53,8.48-13.87,1.31-2.38,2.48-4.67,3.53-6.86,1-2,1.85-4,2.63-5.8a73.5,73.5,0,0,0,5-14.77c.11-.54.21-1,.29-1.35h0s0,0,0,0l.21-1.13A78.5,78.5,0,0,0,150,77.4c0-.81.05-1.63.05-2.44A74.85,74.85,0,0,0,131,25.25Zm7.92,56.86c-.05.46-.1.91-.17,1.36-.17,1.25-.37,2.49-.61,3.72a.58.58,0,0,1,0,.14s0,.07,0,.1l-.35,1.69v.07A62.17,62.17,0,0,1,133.42,102s0,.12-.09.16c-1.28,3.06-2.85,6.41-4.74,10q-1.73,3.3-3.85,6.86c-2.1,3.53-4.5,7.25-7.25,11.13l-.26.37c-.65.9-1.31,1.82-2,2.75l-.75,1-.09.11-.55.74h0l-.43.56c-.13.18-.27.35-.4.54a.86.86,0,0,0-.14.18l-.54.68a.05.05,0,0,1,0,0A244.62,244.62,0,0,1,75,174.9,262.22,262.22,0,0,1,49.48,151a184.79,184.79,0,0,1-27-36.76,132.23,132.23,0,0,1-5.88-12.09s0-.12-.08-.16c-.23-.5-.46-1-.68-1.52a68,68,0,0,1-3.67-11.26v-.07c-.23-.91-.31-1.49-.35-1.69s0-.16,0-.27a64.22,64.22,0,0,1-1.17-11.48v-.76c0-.43,0-.86,0-1.29,0-.22,0-.44,0-.66,0-1.08.09-2.14.17-3.2a64.13,64.13,0,0,1,2-11.67.07.07,0,0,1,0-.06c.11-.42.22-.83.35-1.25h0l.27-.91a1.15,1.15,0,0,1,.06-.17A64.38,64.38,0,0,1,139.07,69c0,.09,0,.19,0,.28.09,1,.16,2.06.19,3.1,0,.83.06,1.67.06,2.51,0,.39,0,.79,0,1.18C139.29,78.11,139.16,80.12,138.94,82.11Zm-128.64-9v.47l.3,0c0-.22,0-.44,0-.66C10.5,73,10.4,73.07,10.3,73.13Zm2.52-15a.07.07,0,0,1,0-.06S12.8,58,12.82,58.1Zm.51-2.32-.17-.12h0l0,0,0,0-.2-.16a2.68,2.68,0,0,1-.23-.17l-.07,0-.34-.27c-.08-.07-.17-.13-.24-.2l-.23-.18-.26-.21-.23-.18,1.94,2.63.27-.91Zm-3,17.35v.47l.3,0c0-.22,0-.44,0-.66C10.5,73,10.4,73.07,10.3,73.13Zm2.52-15a.07.07,0,0,1,0-.06S12.8,58,12.82,58.1Zm.51-2.32-.17-.12h0l0,0,0,0-.2-.16a2.68,2.68,0,0,1-.23-.17l-.07,0-.34-.27c-.08-.07-.17-.13-.24-.2l-.23-.18-.26-.21-.23-.18,1.94,2.63.27-.91Zm-3,17.35v.47l.3,0c0-.22,0-.44,0-.66C10.5,73,10.4,73.07,10.3,73.13Zm2.52-15a.07.07,0,0,1,0-.06S12.8,58,12.82,58.1Zm.51-2.32-.17-.12h0l0,0,0,0-.2-.16a2.68,2.68,0,0,1-.23-.17l-.07,0-.34-.27c-.08-.07-.17-.13-.24-.2l-.23-.18-.26-.21-.23-.18,1.94,2.63.27-.91Z"/><polygon class="cls-4" points="101 77.18 93 82.18 97 80.18 91 84.18 95 82.18 89 86.18 104 77.18 101 77.18"/></g></g></svg>