<svg id="multiple-users" xmlns="http://www.w3.org/2000/svg" width="26.196" height="26.196" viewBox="0 0 26.196 26.196">
  <g id="Group_244" data-name="Group 244" transform="translate(10.369)">
    <path id="Path_778" data-name="Path 778" d="M12.229,5.457a2.729,2.729,0,1,1,2.729-2.729A2.733,2.733,0,0,1,12.229,5.457Zm0-3.82A1.091,1.091,0,1,0,13.32,2.729,1.093,1.093,0,0,0,12.229,1.637Z" transform="translate(-9.5)" fill="#b7b7b7"/>
  </g>
  <g id="Group_245" data-name="Group 245" transform="translate(7.64 6.549)">
    <path id="Path_779" data-name="Path 779" d="M17.1,10.366a.819.819,0,0,1-.819-.819V9a1.366,1.366,0,0,0-1.364-1.364H10A1.366,1.366,0,0,0,8.637,9v.546A.819.819,0,0,1,7,9.547V9a3,3,0,0,1,3-3h4.912a3,3,0,0,1,3,3v.546A.819.819,0,0,1,17.1,10.366Z" transform="translate(-7 -6)" fill="#b7b7b7"/>
  </g>
  <g id="Group_246" data-name="Group 246" transform="translate(18.01 15.281)">
    <path id="Path_780" data-name="Path 780" d="M19.229,19.457a2.729,2.729,0,1,1,2.729-2.729A2.733,2.733,0,0,1,19.229,19.457Zm0-3.82a1.091,1.091,0,1,0,1.091,1.091A1.093,1.093,0,0,0,19.229,15.637Z" transform="translate(-16.5 -14)" fill="#b7b7b7"/>
  </g>
  <g id="Group_247" data-name="Group 247" transform="translate(15.281 21.83)">
    <path id="Path_781" data-name="Path 781" d="M24.1,24.366a.819.819,0,0,1-.819-.819V23a1.366,1.366,0,0,0-1.364-1.364H17A1.366,1.366,0,0,0,15.637,23v.546a.819.819,0,1,1-1.637,0V23a3,3,0,0,1,3-3h4.912a3,3,0,0,1,3,3v.546A.819.819,0,0,1,24.1,24.366Z" transform="translate(-14 -20)" fill="#b7b7b7"/>
  </g>
  <g id="Group_248" data-name="Group 248" transform="translate(2.729 15.281)">
    <path id="Path_782" data-name="Path 782" d="M5.229,19.457a2.729,2.729,0,1,1,2.729-2.729A2.733,2.733,0,0,1,5.229,19.457Zm0-3.82A1.091,1.091,0,1,0,6.32,16.729,1.093,1.093,0,0,0,5.229,15.637Z" transform="translate(-2.5 -14)" fill="#b7b7b7"/>
  </g>
  <g id="Group_249" data-name="Group 249" transform="translate(0 21.83)">
    <path id="Path_783" data-name="Path 783" d="M10.1,24.366a.819.819,0,0,1-.819-.819V23a1.366,1.366,0,0,0-1.364-1.364H3A1.366,1.366,0,0,0,1.637,23v.546a.819.819,0,1,1-1.637,0V23a3,3,0,0,1,3-3H7.913a3,3,0,0,1,3,3v.546A.819.819,0,0,1,10.1,24.366Z" transform="translate(0 -20)" fill="#b7b7b7"/>
  </g>
  <g id="Group_250" data-name="Group 250" transform="translate(2.183 3.133)">
    <path id="Path_784" data-name="Path 784" d="M2.819,13.667A.819.819,0,0,1,2,12.848a10.958,10.958,0,0,1,6.318-9.9.818.818,0,1,1,.69,1.484,9.315,9.315,0,0,0-5.37,8.418.819.819,0,0,1-.819.819Z" transform="translate(-2 -2.87)" fill="#b7b7b7"/>
  </g>
  <g id="Group_251" data-name="Group 251" transform="translate(16.532 3.132)">
    <path id="Path_785" data-name="Path 785" d="M21.808,13.667a.819.819,0,0,1-.819-.819,9.315,9.315,0,0,0-5.37-8.418.819.819,0,0,1,.691-1.486,10.962,10.962,0,0,1,6.316,9.9A.819.819,0,0,1,21.808,13.667Z" transform="translate(-15.146 -2.869)" fill="#b7b7b7"/>
  </g>
  <g id="Group_252" data-name="Group 252" transform="translate(11.223 22.327)">
    <path id="Path_786" data-name="Path 786" d="M12.157,22.154a11.259,11.259,0,0,1-1.142-.059.819.819,0,1,1,.17-1.628,9.545,9.545,0,0,0,2.005-.007.819.819,0,1,1,.179,1.628A11.384,11.384,0,0,1,12.157,22.154Z" transform="translate(-10.282 -20.455)" fill="#b7b7b7"/>
  </g>
</svg>
