<svg id="regular" enable-background="new 0 0 24 24" height="512" viewBox="0 0 24 24" width="512" xmlns="http://www.w3.org/2000/svg"><g><path d="m12 5c-1.378 0-2.5-1.122-2.5-2.5s1.122-2.5 2.5-2.5 2.5 1.122 2.5 2.5-1.122 2.5-2.5 2.5zm0-3.5c-.551 0-1 .449-1 1s.449 1 1 1 1-.449 1-1-.449-1-1-1z"/></g><g><path d="m16.25 10c-.414 0-.75-.336-.75-.75v-.5c0-.689-.561-1.25-1.25-1.25h-4.5c-.689 0-1.25.561-1.25 1.25v.5c0 .414-.336.75-.75.75s-.75-.336-.75-.75v-.5c0-1.517 1.233-2.75 2.75-2.75h4.5c1.517 0 2.75 1.233 2.75 2.75v.5c0 .414-.336.75-.75.75z"/></g><g><path d="m19 19c-1.378 0-2.5-1.122-2.5-2.5s1.122-2.5 2.5-2.5 2.5 1.122 2.5 2.5-1.122 2.5-2.5 2.5zm0-3.5c-.551 0-1 .449-1 1s.449 1 1 1 1-.449 1-1-.449-1-1-1z"/></g><g><path d="m23.25 24c-.414 0-.75-.336-.75-.75v-.5c0-.689-.561-1.25-1.25-1.25h-4.5c-.689 0-1.25.561-1.25 1.25v.5c0 .414-.336.75-.75.75s-.75-.336-.75-.75v-.5c0-1.517 1.233-2.75 2.75-2.75h4.5c1.517 0 2.75 1.233 2.75 2.75v.5c0 .414-.336.75-.75.75z"/></g><g><path d="m5 19c-1.378 0-2.5-1.122-2.5-2.5s1.122-2.5 2.5-2.5 2.5 1.122 2.5 2.5-1.122 2.5-2.5 2.5zm0-3.5c-.551 0-1 .449-1 1s.449 1 1 1 1-.449 1-1-.449-1-1-1z"/></g><g><path d="m9.25 24c-.414 0-.75-.336-.75-.75v-.5c0-.689-.561-1.25-1.25-1.25h-4.5c-.689 0-1.25.561-1.25 1.25v.5c0 .414-.336.75-.75.75s-.75-.336-.75-.75v-.5c0-1.517 1.233-2.75 2.75-2.75h4.5c1.517 0 2.75 1.233 2.75 2.75v.5c0 .414-.336.75-.75.75z"/></g><g><path d="m2.75 12.762c-.414 0-.75-.336-.75-.75 0-3.876 2.272-7.437 5.788-9.072.377-.174.821-.012.997.364.173.375.011.821-.365.996-2.989 1.39-4.92 4.417-4.92 7.712 0 .414-.336.75-.75.75z"/></g><g><path d="m21.25 12.762c-.414 0-.75-.336-.75-.75 0-3.295-1.931-6.322-4.92-7.712-.375-.175-.538-.621-.364-.997.175-.375.62-.538.997-.364 3.515 1.636 5.787 5.197 5.787 9.073 0 .414-.336.75-.75.75z"/></g><g><path d="m12 22.012c-.354 0-.702-.019-1.046-.054-.412-.043-.711-.412-.668-.824.043-.411.407-.705.824-.668.602.063 1.233.06 1.837-.006.409-.047.782.252.828.664.045.412-.252.782-.664.828-.364.039-.735.06-1.111.06z"/></g></svg>